<svg xmlns="http://www.w3.org/2000/svg" viewBox="-131.70933675353692 -99.74065123947005 6880.778631339709 7005.2682293891285" width="900">
<rect x="-131.70933675353692" y="-99.74065123947005" width="6880.778631339709" height="7005.2682293891285" fill="#eef0f4"/>
<circle cx="4798.5" cy="249.9" r="141.7" fill="#c9cfdd" stroke="#98a2b8" stroke-width="3"/>
<circle cx="4115.1" cy="565.0" r="141.7" fill="#c9cfdd" stroke="#98a2b8" stroke-width="3"/>
<circle cx="433.2" cy="3750.3" r="141.7" fill="#c9cfdd" stroke="#98a2b8" stroke-width="3"/>
<circle cx="4399.8" cy="2605.8" r="141.7" fill="#c9cfdd" stroke="#98a2b8" stroke-width="3"/>
<circle cx="3140.1" cy="4394.8" r="141.7" fill="#c9cfdd" stroke="#98a2b8" stroke-width="3"/>
<circle cx="2740.9" cy="6354.7" r="141.7" fill="#c9cfdd" stroke="#98a2b8" stroke-width="3"/>
<circle cx="2263.3" cy="6201.4" r="141.7" fill="#c9cfdd" stroke="#98a2b8" stroke-width="3"/>
<circle cx="3967.2" cy="6703.8" r="141.7" fill="#c9cfdd" stroke="#98a2b8" stroke-width="3"/>
<circle cx="2646.8" cy="5876.4" r="141.7" fill="#c9cfdd" stroke="#98a2b8" stroke-width="3"/>
<circle cx="3579.4" cy="5783.7" r="141.7" fill="#c9cfdd" stroke="#98a2b8" stroke-width="3"/>
<circle cx="3311.2" cy="6506.4" r="141.7" fill="#c9cfdd" stroke="#98a2b8" stroke-width="3"/>
<circle cx="2549.8" cy="5361.2" r="141.7" fill="#c9cfdd" stroke="#98a2b8" stroke-width="3"/>
<circle cx="2108.4" cy="3383.8" r="141.7" fill="#c9cfdd" stroke="#98a2b8" stroke-width="3"/>
<circle cx="909.9" cy="3917.8" r="141.7" fill="#c9cfdd" stroke="#98a2b8" stroke-width="3"/>
<circle cx="1200.3" cy="1760.1" r="141.7" fill="#c9cfdd" stroke="#98a2b8" stroke-width="3"/>
<circle cx="3686.3" cy="3088.0" r="141.7" fill="#c9cfdd" stroke="#98a2b8" stroke-width="3"/>
<circle cx="3438.6" cy="2707.8" r="141.7" fill="#c9cfdd" stroke="#98a2b8" stroke-width="3"/>
<circle cx="3488.9" cy="3524.3" r="141.7" fill="#c9cfdd" stroke="#98a2b8" stroke-width="3"/>
<circle cx="1631.8" cy="1620.9" r="141.7" fill="#c9cfdd" stroke="#98a2b8" stroke-width="3"/>
<circle cx="2777.2" cy="4079.1" r="141.7" fill="#c9cfdd" stroke="#98a2b8" stroke-width="3"/>
<circle cx="2885.1" cy="1876.0" r="141.7" fill="#c9cfdd" stroke="#98a2b8" stroke-width="3"/>
<circle cx="3149.3" cy="2310.6" r="141.7" fill="#c9cfdd" stroke="#98a2b8" stroke-width="3"/>
<circle cx="320.5" cy="2006.2" r="141.7" fill="#c9cfdd" stroke="#98a2b8" stroke-width="3"/>
<circle cx="536.2" cy="4255.7" r="141.7" fill="#c9cfdd" stroke="#98a2b8" stroke-width="3"/>
<circle cx="2321.7" cy="4274.0" r="141.7" fill="#c9cfdd" stroke="#98a2b8" stroke-width="3"/>
<circle cx="1714.3" cy="330.7" r="141.7" fill="#c9cfdd" stroke="#98a2b8" stroke-width="3"/>
<circle cx="2193.2" cy="237.5" r="141.7" fill="#c9cfdd" stroke="#98a2b8" stroke-width="3"/>
<circle cx="3813.0" cy="955.7" r="141.7" fill="#c9cfdd" stroke="#98a2b8" stroke-width="3"/>
<circle cx="2291.8" cy="1109.4" r="141.7" fill="#c9cfdd" stroke="#98a2b8" stroke-width="3"/>
<circle cx="3018.1" cy="604.8" r="141.7" fill="#c9cfdd" stroke="#98a2b8" stroke-width="3"/>
<circle cx="2756.1" cy="222.5" r="141.7" fill="#c9cfdd" stroke="#98a2b8" stroke-width="3"/>
<circle cx="3246.1" cy="192.7" r="141.7" fill="#c9cfdd" stroke="#98a2b8" stroke-width="3"/>
<circle cx="3794.3" cy="168.2" r="141.7" fill="#c9cfdd" stroke="#98a2b8" stroke-width="3"/>
<circle cx="3510.5" cy="571.5" r="141.7" fill="#c9cfdd" stroke="#98a2b8" stroke-width="3"/>
<circle cx="4328.4" cy="102.0" r="141.7" fill="#c9cfdd" stroke="#98a2b8" stroke-width="3"/>
<circle cx="2453.0" cy="4923.8" r="141.7" fill="#c9cfdd" stroke="#98a2b8" stroke-width="3"/>
<circle cx="5973.5" cy="2626.8" r="141.7" fill="#c9cfdd" stroke="#98a2b8" stroke-width="3"/>
<circle cx="6190.8" cy="2184.0" r="141.7" fill="#c9cfdd" stroke="#98a2b8" stroke-width="3"/>
<circle cx="5705.8" cy="2214.5" r="141.7" fill="#c9cfdd" stroke="#98a2b8" stroke-width="3"/>
<circle cx="5912.4" cy="1799.8" r="141.7" fill="#c9cfdd" stroke="#98a2b8" stroke-width="3"/>
<circle cx="6547.3" cy="3370.5" r="141.7" fill="#c9cfdd" stroke="#98a2b8" stroke-width="3"/>
<circle cx="6449.6" cy="2580.6" r="141.7" fill="#c9cfdd" stroke="#98a2b8" stroke-width="3"/>
<circle cx="5718.5" cy="3768.2" r="141.7" fill="#c9cfdd" stroke="#98a2b8" stroke-width="3"/>
<circle cx="6271.1" cy="2998.0" r="141.7" fill="#c9cfdd" stroke="#98a2b8" stroke-width="3"/>
<circle cx="2517.2" cy="3650.5" r="141.7" fill="#c9cfdd" stroke="#98a2b8" stroke-width="3"/>
<circle cx="1286.7" cy="2239.3" r="141.7" fill="#c9cfdd" stroke="#98a2b8" stroke-width="3"/>
<circle cx="3223.9" cy="3150.0" r="141.7" fill="#c9cfdd" stroke="#98a2b8" stroke-width="3"/>
<circle cx="5955.8" cy="3339.9" r="141.7" fill="#c9cfdd" stroke="#98a2b8" stroke-width="3"/>
<circle cx="5641.2" cy="2982.5" r="141.7" fill="#c9cfdd" stroke="#98a2b8" stroke-width="3"/>
<circle cx="6211.9" cy="1433.4" r="141.7" fill="#c9cfdd" stroke="#98a2b8" stroke-width="3"/>
<circle cx="5449.6" cy="904.6" r="141.7" fill="#c9cfdd" stroke="#98a2b8" stroke-width="3"/>
<circle cx="4959.3" cy="3419.8" r="141.7" fill="#c9cfdd" stroke="#98a2b8" stroke-width="3"/>
<circle cx="2973.4" cy="2763.7" r="141.7" fill="#c9cfdd" stroke="#98a2b8" stroke-width="3"/>
<circle cx="5419.9" cy="3393.8" r="141.7" fill="#c9cfdd" stroke="#98a2b8" stroke-width="3"/>
<circle cx="5712.7" cy="1353.2" r="141.7" fill="#c9cfdd" stroke="#98a2b8" stroke-width="3"/>
<circle cx="5365.6" cy="2569.9" r="141.7" fill="#c9cfdd" stroke="#98a2b8" stroke-width="3"/>
<circle cx="4700.0" cy="3029.1" r="141.7" fill="#c9cfdd" stroke="#98a2b8" stroke-width="3"/>
<circle cx="1123.0" cy="3111.3" r="141.7" fill="#c9cfdd" stroke="#98a2b8" stroke-width="3"/>
<circle cx="5822.9" cy="5048.5" r="141.7" fill="#c9cfdd" stroke="#98a2b8" stroke-width="3"/>
<circle cx="6149.9" cy="4705.7" r="141.7" fill="#c9cfdd" stroke="#98a2b8" stroke-width="3"/>
<circle cx="3838.3" cy="1843.7" r="141.7" fill="#c9cfdd" stroke="#98a2b8" stroke-width="3"/>
<circle cx="5381.4" cy="5181.0" r="141.7" fill="#c9cfdd" stroke="#98a2b8" stroke-width="3"/>
<circle cx="6234.3" cy="3754.5" r="141.7" fill="#c9cfdd" stroke="#98a2b8" stroke-width="3"/>
<circle cx="5495.4" cy="4210.5" r="141.7" fill="#c9cfdd" stroke="#98a2b8" stroke-width="3"/>
<circle cx="6486.2" cy="4185.0" r="141.7" fill="#c9cfdd" stroke="#98a2b8" stroke-width="3"/>
<circle cx="5985.0" cy="4221.3" r="141.7" fill="#c9cfdd" stroke="#98a2b8" stroke-width="3"/>
<circle cx="3823.0" cy="3981.1" r="141.7" fill="#c9cfdd" stroke="#98a2b8" stroke-width="3"/>
<circle cx="4104.6" cy="2207.5" r="141.7" fill="#c9cfdd" stroke="#98a2b8" stroke-width="3"/>
<circle cx="2684.8" cy="2317.3" r="141.7" fill="#c9cfdd" stroke="#98a2b8" stroke-width="3"/>
<circle cx="1029.2" cy="891.5" r="141.7" fill="#c9cfdd" stroke="#98a2b8" stroke-width="3"/>
<circle cx="2007.6" cy="711.4" r="141.7" fill="#c9cfdd" stroke="#98a2b8" stroke-width="3"/>
<circle cx="1505.1" cy="759.1" r="141.7" fill="#c9cfdd" stroke="#98a2b8" stroke-width="3"/>
<circle cx="1790.9" cy="1168.2" r="141.7" fill="#c9cfdd" stroke="#98a2b8" stroke-width="3"/>
<circle cx="726.7" cy="1630.5" r="141.7" fill="#c9cfdd" stroke="#98a2b8" stroke-width="3"/>
<circle cx="614.4" cy="1146.1" r="141.7" fill="#c9cfdd" stroke="#98a2b8" stroke-width="3"/>
<circle cx="1304.5" cy="1297.9" r="141.7" fill="#c9cfdd" stroke="#98a2b8" stroke-width="3"/>
<circle cx="1622.5" cy="3195.9" r="141.7" fill="#c9cfdd" stroke="#98a2b8" stroke-width="3"/>
<circle cx="791.5" cy="2143.1" r="141.7" fill="#c9cfdd" stroke="#98a2b8" stroke-width="3"/>
<circle cx="1398.7" cy="2761.2" r="141.7" fill="#c9cfdd" stroke="#98a2b8" stroke-width="3"/>
<circle cx="4888.0" cy="1713.6" r="141.7" fill="#c9cfdd" stroke="#98a2b8" stroke-width="3"/>
<circle cx="788.6" cy="5274.3" r="141.7" fill="#c9cfdd" stroke="#98a2b8" stroke-width="3"/>
<circle cx="1720.9" cy="5511.7" r="141.7" fill="#c9cfdd" stroke="#98a2b8" stroke-width="3"/>
<circle cx="1137.8" cy="4909.5" r="141.7" fill="#c9cfdd" stroke="#98a2b8" stroke-width="3"/>
<circle cx="651.6" cy="4768.9" r="141.7" fill="#c9cfdd" stroke="#98a2b8" stroke-width="3"/>
<circle cx="1276.0" cy="5370.1" r="141.7" fill="#c9cfdd" stroke="#98a2b8" stroke-width="3"/>
<circle cx="3002.4" cy="5531.7" r="141.7" fill="#c9cfdd" stroke="#98a2b8" stroke-width="3"/>
<circle cx="2033.2" cy="2873.7" r="141.7" fill="#c9cfdd" stroke="#98a2b8" stroke-width="3"/>
<circle cx="1035.2" cy="4406.0" r="141.7" fill="#c9cfdd" stroke="#98a2b8" stroke-width="3"/>
<circle cx="1626.6" cy="5064.6" r="141.7" fill="#c9cfdd" stroke="#98a2b8" stroke-width="3"/>
<circle cx="1760.3" cy="6010.8" r="141.7" fill="#c9cfdd" stroke="#98a2b8" stroke-width="3"/>
<circle cx="4583.0" cy="648.7" r="141.7" fill="#c9cfdd" stroke="#98a2b8" stroke-width="3"/>
<circle cx="5109.6" cy="6152.1" r="141.7" fill="#c9cfdd" stroke="#98a2b8" stroke-width="3"/>
<circle cx="4596.4" cy="5927.4" r="141.7" fill="#c9cfdd" stroke="#98a2b8" stroke-width="3"/>
<circle cx="4562.8" cy="4249.3" r="141.7" fill="#c9cfdd" stroke="#98a2b8" stroke-width="3"/>
<circle cx="4109.3" cy="4361.7" r="141.7" fill="#c9cfdd" stroke="#98a2b8" stroke-width="3"/>
<circle cx="5692.7" cy="4620.5" r="141.7" fill="#c9cfdd" stroke="#98a2b8" stroke-width="3"/>
<circle cx="4462.8" cy="5432.0" r="141.7" fill="#c9cfdd" stroke="#98a2b8" stroke-width="3"/>
<circle cx="5028.5" cy="5639.4" r="141.7" fill="#c9cfdd" stroke="#98a2b8" stroke-width="3"/>
<circle cx="5549.5" cy="5638.5" r="141.7" fill="#c9cfdd" stroke="#98a2b8" stroke-width="3"/>
<circle cx="5231.6" cy="3807.9" r="141.7" fill="#c9cfdd" stroke="#98a2b8" stroke-width="3"/>
<circle cx="5218.1" cy="4712.1" r="141.7" fill="#c9cfdd" stroke="#98a2b8" stroke-width="3"/>
<circle cx="2602.4" cy="1472.8" r="141.7" fill="#c9cfdd" stroke="#98a2b8" stroke-width="3"/>
<circle cx="4890.3" cy="5141.7" r="141.7" fill="#c9cfdd" stroke="#98a2b8" stroke-width="3"/>
<circle cx="4204.9" cy="3044.1" r="141.7" fill="#c9cfdd" stroke="#98a2b8" stroke-width="3"/>
<circle cx="4332.7" cy="4960.6" r="141.7" fill="#c9cfdd" stroke="#98a2b8" stroke-width="3"/>
<circle cx="3933.3" cy="2637.2" r="141.7" fill="#c9cfdd" stroke="#98a2b8" stroke-width="3"/>
<circle cx="4608.5" cy="2161.6" r="141.7" fill="#c9cfdd" stroke="#98a2b8" stroke-width="3"/>
<circle cx="5176.7" cy="3015.1" r="141.7" fill="#c9cfdd" stroke="#98a2b8" stroke-width="3"/>
<circle cx="1520.6" cy="4589.3" r="141.7" fill="#c9cfdd" stroke="#98a2b8" stroke-width="3"/>
<circle cx="5418.3" cy="1790.8" r="141.7" fill="#c9cfdd" stroke="#98a2b8" stroke-width="3"/>
<circle cx="1416.0" cy="4050.0" r="141.7" fill="#c9cfdd" stroke="#98a2b8" stroke-width="3"/>
<circle cx="3615.5" cy="4380.8" r="141.7" fill="#c9cfdd" stroke="#98a2b8" stroke-width="3"/>
<circle cx="2815.2" cy="1042.0" r="141.7" fill="#c9cfdd" stroke="#98a2b8" stroke-width="3"/>
<circle cx="3358.1" cy="1862.9" r="141.7" fill="#c9cfdd" stroke="#98a2b8" stroke-width="3"/>
<circle cx="3361.9" cy="3988.0" r="141.7" fill="#c9cfdd" stroke="#98a2b8" stroke-width="3"/>
<circle cx="4707.1" cy="4668.5" r="141.7" fill="#c9cfdd" stroke="#98a2b8" stroke-width="3"/>
<circle cx="3598.3" cy="1419.4" r="141.7" fill="#c9cfdd" stroke="#98a2b8" stroke-width="3"/>
<circle cx="3020.6" cy="3614.4" r="141.7" fill="#c9cfdd" stroke="#98a2b8" stroke-width="3"/>
<circle cx="2106.2" cy="1538.2" r="141.7" fill="#c9cfdd" stroke="#98a2b8" stroke-width="3"/>
<circle cx="3967.7" cy="5291.9" r="141.7" fill="#c9cfdd" stroke="#98a2b8" stroke-width="3"/>
<circle cx="5028.9" cy="4240.1" r="141.7" fill="#c9cfdd" stroke="#98a2b8" stroke-width="3"/>
<circle cx="4067.3" cy="1380.8" r="141.7" fill="#c9cfdd" stroke="#98a2b8" stroke-width="3"/>
<circle cx="5096.0" cy="2164.2" r="141.7" fill="#c9cfdd" stroke="#98a2b8" stroke-width="3"/>
<circle cx="2514.4" cy="642.2" r="141.7" fill="#c9cfdd" stroke="#98a2b8" stroke-width="3"/>
<circle cx="441.6" cy="2518.1" r="141.7" fill="#c9cfdd" stroke="#98a2b8" stroke-width="3"/>
<circle cx="634.4" cy="2999.6" r="141.7" fill="#c9cfdd" stroke="#98a2b8" stroke-width="3"/>
<circle cx="186.6" cy="3286.6" r="141.7" fill="#c9cfdd" stroke="#98a2b8" stroke-width="3"/>
<circle cx="70.0" cy="4077.2" r="141.7" fill="#c9cfdd" stroke="#98a2b8" stroke-width="3"/>
<circle cx="954.7" cy="2612.0" r="141.7" fill="#c9cfdd" stroke="#98a2b8" stroke-width="3"/>
<circle cx="1918.0" cy="1979.4" r="141.7" fill="#c9cfdd" stroke="#98a2b8" stroke-width="3"/>
<circle cx="2117.8" cy="3867.2" r="141.7" fill="#c9cfdd" stroke="#98a2b8" stroke-width="3"/>
<circle cx="2181.3" cy="5691.2" r="141.7" fill="#c9cfdd" stroke="#98a2b8" stroke-width="3"/>
<circle cx="2411.7" cy="1923.1" r="141.7" fill="#c9cfdd" stroke="#98a2b8" stroke-width="3"/>
<circle cx="805.3" cy="3457.2" r="141.7" fill="#c9cfdd" stroke="#98a2b8" stroke-width="3"/>
<circle cx="3305.8" cy="997.6" r="141.7" fill="#c9cfdd" stroke="#98a2b8" stroke-width="3"/>
<circle cx="4690.1" cy="6409.5" r="141.7" fill="#c9cfdd" stroke="#98a2b8" stroke-width="3"/>
<circle cx="3891.2" cy="4801.9" r="141.7" fill="#c9cfdd" stroke="#98a2b8" stroke-width="3"/>
<circle cx="4234.6" cy="6286.2" r="141.7" fill="#c9cfdd" stroke="#98a2b8" stroke-width="3"/>
<circle cx="4089.7" cy="5800.7" r="141.7" fill="#c9cfdd" stroke="#98a2b8" stroke-width="3"/>
<circle cx="2704.4" cy="4552.3" r="141.7" fill="#c9cfdd" stroke="#98a2b8" stroke-width="3"/>
<circle cx="3740.1" cy="6252.2" r="141.7" fill="#c9cfdd" stroke="#98a2b8" stroke-width="3"/>
<circle cx="3130.6" cy="6032.6" r="141.7" fill="#c9cfdd" stroke="#98a2b8" stroke-width="3"/>
<circle cx="2080.2" cy="5196.4" r="141.7" fill="#c9cfdd" stroke="#98a2b8" stroke-width="3"/>
<circle cx="3644.2" cy="2258.4" r="141.7" fill="#c9cfdd" stroke="#98a2b8" stroke-width="3"/>
<circle cx="2723.7" cy="3189.8" r="141.7" fill="#c9cfdd" stroke="#98a2b8" stroke-width="3"/>
<circle cx="5041.5" cy="637.2" r="141.7" fill="#c9cfdd" stroke="#98a2b8" stroke-width="3"/>
<circle cx="3450.7" cy="5305.0" r="141.7" fill="#c9cfdd" stroke="#98a2b8" stroke-width="3"/>
<circle cx="3966.8" cy="3510.4" r="141.7" fill="#c9cfdd" stroke="#98a2b8" stroke-width="3"/>
<circle cx="1249.7" cy="3574.0" r="141.7" fill="#c9cfdd" stroke="#98a2b8" stroke-width="3"/>
<circle cx="1736.6" cy="2446.3" r="141.7" fill="#c9cfdd" stroke="#98a2b8" stroke-width="3"/>
<circle cx="1852.0" cy="4234.6" r="141.7" fill="#c9cfdd" stroke="#98a2b8" stroke-width="3"/>
<circle cx="3403.1" cy="4799.3" r="141.7" fill="#c9cfdd" stroke="#98a2b8" stroke-width="3"/>
<circle cx="2035.7" cy="4690.3" r="141.7" fill="#c9cfdd" stroke="#98a2b8" stroke-width="3"/>
<circle cx="4272.0" cy="3908.0" r="141.7" fill="#c9cfdd" stroke="#98a2b8" stroke-width="3"/>
<circle cx="1715.3" cy="3673.3" r="141.7" fill="#c9cfdd" stroke="#98a2b8" stroke-width="3"/>
<circle cx="2932.0" cy="5014.5" r="141.7" fill="#c9cfdd" stroke="#98a2b8" stroke-width="3"/>
<circle cx="4837.9" cy="1054.8" r="141.7" fill="#c9cfdd" stroke="#98a2b8" stroke-width="3"/>
<circle cx="4774.0" cy="3843.9" r="141.7" fill="#c9cfdd" stroke="#98a2b8" stroke-width="3"/>
<circle cx="2221.4" cy="2368.8" r="141.7" fill="#c9cfdd" stroke="#98a2b8" stroke-width="3"/>
<circle cx="3090.1" cy="1443.8" r="141.7" fill="#c9cfdd" stroke="#98a2b8" stroke-width="3"/>
<circle cx="4297.6" cy="996.0" r="141.7" fill="#c9cfdd" stroke="#98a2b8" stroke-width="3"/>
<circle cx="5214.3" cy="1334.5" r="141.7" fill="#c9cfdd" stroke="#98a2b8" stroke-width="3"/>
<circle cx="4874.0" cy="2579.9" r="141.7" fill="#c9cfdd" stroke="#98a2b8" stroke-width="3"/>
<circle cx="2521.1" cy="2745.2" r="141.7" fill="#c9cfdd" stroke="#98a2b8" stroke-width="3"/>
<circle cx="4289.7" cy="1789.1" r="141.7" fill="#c9cfdd" stroke="#98a2b8" stroke-width="3"/>
<circle cx="4478.0" cy="3470.3" r="141.7" fill="#c9cfdd" stroke="#98a2b8" stroke-width="3"/>
<circle cx="4519.6" cy="1387.7" r="141.7" fill="#c9cfdd" stroke="#98a2b8" stroke-width="3"/>
<rect x="4728.5" y="147.9" width="140.0" height="94.0" fill="#e8556d" rx="4"/>
<rect x="4728.5" y="257.9" width="140.0" height="94.0" fill="#e8556d" rx="4"/>
<rect x="4045.1" y="463.0" width="140.0" height="94.0" fill="#e8556d" rx="4"/>
<rect x="4045.1" y="573.0" width="140.0" height="94.0" fill="#e8556d" rx="4"/>
<rect x="363.2" y="3648.3" width="140.0" height="94.0" fill="#e8556d" rx="4"/>
<rect x="363.2" y="3758.3" width="140.0" height="94.0" fill="#e8556d" rx="4"/>
<rect x="4329.7" y="2503.8" width="140.1" height="94.0" fill="#e8556d" rx="4"/>
<rect x="4329.8" y="2613.8" width="140.0" height="94.0" fill="#e8556d" rx="4"/>
<rect x="3070.1" y="4292.8" width="140.1" height="94.0" fill="#e8556d" rx="4"/>
<rect x="3070.1" y="4402.8" width="140.0" height="94.0" fill="#e8556d" rx="4"/>
<rect x="2670.8" y="6252.7" width="140.1" height="94.0" fill="#e8556d" rx="4"/>
<rect x="2670.9" y="6362.7" width="140.0" height="94.0" fill="#e8556d" rx="4"/>
<rect x="2193.3" y="6099.4" width="140.1" height="94.0" fill="#e8556d" rx="4"/>
<rect x="2193.3" y="6209.4" width="140.0" height="94.0" fill="#e8556d" rx="4"/>
<rect x="3897.2" y="6601.8" width="140.1" height="94.0" fill="#e8556d" rx="4"/>
<rect x="3897.2" y="6711.8" width="140.0" height="94.0" fill="#e8556d" rx="4"/>
<rect x="2576.8" y="5774.4" width="140.1" height="94.0" fill="#e8556d" rx="4"/>
<rect x="2576.8" y="5884.4" width="140.0" height="94.0" fill="#e8556d" rx="4"/>
<rect x="3509.4" y="5681.7" width="140.1" height="94.0" fill="#e8556d" rx="4"/>
<rect x="3509.4" y="5791.7" width="140.0" height="94.0" fill="#e8556d" rx="4"/>
<rect x="3241.2" y="6404.5" width="140.1" height="94.0" fill="#e8556d" rx="4"/>
<rect x="3241.2" y="6514.5" width="140.0" height="94.0" fill="#e8556d" rx="4"/>
<rect x="2479.8" y="5259.3" width="140.1" height="94.0" fill="#e8556d" rx="4"/>
<rect x="2479.8" y="5369.3" width="140.0" height="94.0" fill="#e8556d" rx="4"/>
<rect x="2038.4" y="3281.8" width="140.1" height="94.0" fill="#e8556d" rx="4"/>
<rect x="2038.4" y="3391.8" width="140.0" height="94.0" fill="#e8556d" rx="4"/>
<rect x="839.9" y="3815.8" width="140.0" height="94.0" fill="#e8556d" rx="4"/>
<rect x="839.9" y="3925.8" width="140.0" height="94.0" fill="#e8556d" rx="4"/>
<rect x="1130.2" y="1658.1" width="140.1" height="94.0" fill="#e8556d" rx="4"/>
<rect x="1130.3" y="1768.1" width="140.0" height="94.0" fill="#e8556d" rx="4"/>
<rect x="3616.2" y="2986.0" width="140.1" height="94.0" fill="#e8556d" rx="4"/>
<rect x="3616.3" y="3096.0" width="140.0" height="94.0" fill="#e8556d" rx="4"/>
<rect x="3368.6" y="2605.9" width="140.1" height="94.0" fill="#e8556d" rx="4"/>
<rect x="3368.6" y="2715.9" width="140.0" height="94.0" fill="#e8556d" rx="4"/>
<rect x="3418.8" y="3422.3" width="140.1" height="94.0" fill="#e8556d" rx="4"/>
<rect x="3418.9" y="3532.3" width="140.0" height="94.0" fill="#e8556d" rx="4"/>
<rect x="1561.7" y="1518.9" width="140.1" height="94.0" fill="#e8556d" rx="4"/>
<rect x="1561.8" y="1628.9" width="140.0" height="94.0" fill="#e8556d" rx="4"/>
<rect x="2707.1" y="3977.2" width="140.1" height="94.0" fill="#e8556d" rx="4"/>
<rect x="2707.2" y="4087.2" width="140.0" height="94.0" fill="#e8556d" rx="4"/>
<rect x="2815.1" y="1774.0" width="140.1" height="94.0" fill="#e8556d" rx="4"/>
<rect x="2815.1" y="1884.0" width="140.0" height="94.0" fill="#e8556d" rx="4"/>
<rect x="3079.3" y="2208.7" width="140.1" height="94.0" fill="#e8556d" rx="4"/>
<rect x="3079.3" y="2318.7" width="140.0" height="94.0" fill="#e8556d" rx="4"/>
<rect x="250.4" y="1904.2" width="140.1" height="94.0" fill="#e8556d" rx="4"/>
<rect x="250.5" y="2014.2" width="140.0" height="94.0" fill="#e8556d" rx="4"/>
<rect x="466.1" y="4153.7" width="140.1" height="94.0" fill="#e8556d" rx="4"/>
<rect x="466.2" y="4263.7" width="140.0" height="94.0" fill="#e8556d" rx="4"/>
<rect x="2251.7" y="4172.0" width="140.0" height="94.0" fill="#e8556d" rx="4"/>
<rect x="2251.7" y="4282.0" width="140.0" height="94.0" fill="#e8556d" rx="4"/>
<rect x="1644.3" y="228.7" width="140.1" height="94.0" fill="#e8556d" rx="4"/>
<rect x="1644.3" y="338.7" width="140.0" height="94.0" fill="#e8556d" rx="4"/>
<rect x="2123.1" y="135.5" width="140.1" height="94.0" fill="#e8556d" rx="4"/>
<rect x="2123.2" y="245.5" width="140.0" height="94.0" fill="#e8556d" rx="4"/>
<rect x="3742.9" y="853.7" width="140.1" height="94.0" fill="#e8556d" rx="4"/>
<rect x="3743.0" y="963.7" width="140.0" height="94.0" fill="#e8556d" rx="4"/>
<rect x="2221.7" y="1007.4" width="140.1" height="94.0" fill="#e8556d" rx="4"/>
<rect x="2221.8" y="1117.4" width="140.0" height="94.0" fill="#e8556d" rx="4"/>
<rect x="2948.1" y="502.8" width="140.1" height="94.0" fill="#e8556d" rx="4"/>
<rect x="2948.1" y="612.8" width="140.0" height="94.0" fill="#e8556d" rx="4"/>
<rect x="2686.0" y="120.6" width="140.1" height="94.0" fill="#e8556d" rx="4"/>
<rect x="2686.1" y="230.6" width="140.0" height="94.0" fill="#e8556d" rx="4"/>
<rect x="3176.0" y="90.8" width="140.1" height="94.0" fill="#e8556d" rx="4"/>
<rect x="3176.1" y="200.8" width="140.0" height="94.0" fill="#e8556d" rx="4"/>
<rect x="3724.2" y="66.2" width="140.1" height="94.0" fill="#e8556d" rx="4"/>
<rect x="3724.3" y="176.2" width="140.0" height="94.0" fill="#e8556d" rx="4"/>
<rect x="3440.4" y="469.6" width="140.1" height="94.0" fill="#e8556d" rx="4"/>
<rect x="3440.5" y="579.6" width="140.0" height="94.0" fill="#e8556d" rx="4"/>
<rect x="4258.4" y="0.0" width="140.1" height="94.0" fill="#e8556d" rx="4"/>
<rect x="4258.4" y="110.0" width="140.0" height="94.0" fill="#e8556d" rx="4"/>
<rect x="2383.0" y="4821.8" width="140.0" height="94.0" fill="#e8556d" rx="4"/>
<rect x="2383.0" y="4931.8" width="140.0" height="94.0" fill="#e8556d" rx="4"/>
<rect x="5903.4" y="2524.8" width="140.1" height="94.0" fill="#e8556d" rx="4"/>
<rect x="5903.5" y="2634.8" width="140.0" height="94.0" fill="#e8556d" rx="4"/>
<rect x="6120.7" y="2082.0" width="140.1" height="94.0" fill="#e8556d" rx="4"/>
<rect x="6120.8" y="2192.0" width="140.0" height="94.0" fill="#e8556d" rx="4"/>
<rect x="5635.7" y="2112.5" width="140.1" height="94.0" fill="#e8556d" rx="4"/>
<rect x="5635.8" y="2222.5" width="140.0" height="94.0" fill="#e8556d" rx="4"/>
<rect x="5842.3" y="1697.8" width="140.1" height="94.0" fill="#e8556d" rx="4"/>
<rect x="5842.4" y="1807.8" width="140.0" height="94.0" fill="#e8556d" rx="4"/>
<rect x="6477.3" y="3268.5" width="140.1" height="94.0" fill="#e8556d" rx="4"/>
<rect x="6477.3" y="3378.5" width="140.0" height="94.0" fill="#e8556d" rx="4"/>
<rect x="6379.6" y="2478.6" width="140.1" height="94.0" fill="#e8556d" rx="4"/>
<rect x="6379.6" y="2588.6" width="140.0" height="94.0" fill="#e8556d" rx="4"/>
<rect x="5648.4" y="3666.2" width="140.1" height="94.0" fill="#e8556d" rx="4"/>
<rect x="5648.5" y="3776.2" width="140.0" height="94.0" fill="#e8556d" rx="4"/>
<rect x="6201.1" y="2896.0" width="140.1" height="94.0" fill="#e8556d" rx="4"/>
<rect x="6201.1" y="3006.0" width="140.0" height="94.0" fill="#e8556d" rx="4"/>
<rect x="2447.1" y="3548.5" width="140.1" height="94.0" fill="#e8556d" rx="4"/>
<rect x="2447.2" y="3658.5" width="140.0" height="94.0" fill="#e8556d" rx="4"/>
<rect x="1216.6" y="2137.3" width="140.1" height="94.0" fill="#e8556d" rx="4"/>
<rect x="1216.7" y="2247.3" width="140.0" height="94.0" fill="#e8556d" rx="4"/>
<rect x="3153.9" y="3048.0" width="140.0" height="94.0" fill="#e8556d" rx="4"/>
<rect x="3153.9" y="3158.0" width="140.0" height="94.0" fill="#e8556d" rx="4"/>
<rect x="5885.7" y="3237.9" width="140.1" height="94.0" fill="#e8556d" rx="4"/>
<rect x="5885.8" y="3347.9" width="140.0" height="94.0" fill="#e8556d" rx="4"/>
<rect x="5571.2" y="2880.6" width="140.1" height="94.0" fill="#e8556d" rx="4"/>
<rect x="5571.2" y="2990.6" width="140.0" height="94.0" fill="#e8556d" rx="4"/>
<rect x="6141.8" y="1331.4" width="140.1" height="94.0" fill="#e8556d" rx="4"/>
<rect x="6141.9" y="1441.4" width="140.0" height="94.0" fill="#e8556d" rx="4"/>
<rect x="5379.6" y="802.6" width="140.1" height="94.0" fill="#e8556d" rx="4"/>
<rect x="5379.6" y="912.6" width="140.0" height="94.0" fill="#e8556d" rx="4"/>
<rect x="4889.3" y="3317.8" width="140.1" height="94.0" fill="#e8556d" rx="4"/>
<rect x="4889.3" y="3427.8" width="140.0" height="94.0" fill="#e8556d" rx="4"/>
<rect x="2903.3" y="2661.7" width="140.1" height="94.0" fill="#e8556d" rx="4"/>
<rect x="2903.4" y="2771.7" width="140.0" height="94.0" fill="#e8556d" rx="4"/>
<rect x="5349.8" y="3291.8" width="140.1" height="94.0" fill="#e8556d" rx="4"/>
<rect x="5349.9" y="3401.8" width="140.0" height="94.0" fill="#e8556d" rx="4"/>
<rect x="5642.6" y="1251.3" width="140.1" height="94.0" fill="#e8556d" rx="4"/>
<rect x="5642.7" y="1361.3" width="140.0" height="94.0" fill="#e8556d" rx="4"/>
<rect x="5295.6" y="2468.0" width="140.1" height="94.0" fill="#e8556d" rx="4"/>
<rect x="5295.6" y="2578.0" width="140.0" height="94.0" fill="#e8556d" rx="4"/>
<rect x="4629.9" y="2927.1" width="140.1" height="94.0" fill="#e8556d" rx="4"/>
<rect x="4630.0" y="3037.1" width="140.0" height="94.0" fill="#e8556d" rx="4"/>
<rect x="1053.0" y="3009.3" width="140.0" height="94.0" fill="#e8556d" rx="4"/>
<rect x="1053.0" y="3119.3" width="140.0" height="94.0" fill="#e8556d" rx="4"/>
<rect x="5752.9" y="4946.5" width="140.1" height="94.0" fill="#e8556d" rx="4"/>
<rect x="5752.9" y="5056.5" width="140.0" height="94.0" fill="#e8556d" rx="4"/>
<rect x="6079.8" y="4603.7" width="140.1" height="94.0" fill="#e8556d" rx="4"/>
<rect x="6079.9" y="4713.7" width="140.0" height="94.0" fill="#e8556d" rx="4"/>
<rect x="3768.3" y="1741.7" width="140.1" height="94.0" fill="#e8556d" rx="4"/>
<rect x="3768.3" y="1851.7" width="140.0" height="94.0" fill="#e8556d" rx="4"/>
<rect x="5311.4" y="5079.0" width="140.1" height="94.0" fill="#e8556d" rx="4"/>
<rect x="5311.4" y="5189.0" width="140.0" height="94.0" fill="#e8556d" rx="4"/>
<rect x="6164.2" y="3652.5" width="140.1" height="94.0" fill="#e8556d" rx="4"/>
<rect x="6164.3" y="3762.5" width="140.0" height="94.0" fill="#e8556d" rx="4"/>
<rect x="5425.3" y="4108.5" width="140.1" height="94.0" fill="#e8556d" rx="4"/>
<rect x="5425.4" y="4218.5" width="140.0" height="94.0" fill="#e8556d" rx="4"/>
<rect x="6416.1" y="4083.1" width="140.1" height="94.0" fill="#e8556d" rx="4"/>
<rect x="6416.2" y="4193.1" width="140.0" height="94.0" fill="#e8556d" rx="4"/>
<rect x="5915.0" y="4119.4" width="140.1" height="94.0" fill="#e8556d" rx="4"/>
<rect x="5915.0" y="4229.4" width="140.0" height="94.0" fill="#e8556d" rx="4"/>
<rect x="3752.9" y="3879.1" width="140.1" height="94.0" fill="#e8556d" rx="4"/>
<rect x="3753.0" y="3989.1" width="140.0" height="94.0" fill="#e8556d" rx="4"/>
<rect x="4034.5" y="2105.5" width="140.1" height="94.0" fill="#e8556d" rx="4"/>
<rect x="4034.6" y="2215.5" width="140.0" height="94.0" fill="#e8556d" rx="4"/>
<rect x="2614.8" y="2215.3" width="140.0" height="94.0" fill="#e8556d" rx="4"/>
<rect x="2614.8" y="2325.3" width="140.0" height="94.0" fill="#e8556d" rx="4"/>
<rect x="959.2" y="789.5" width="140.1" height="94.0" fill="#e8556d" rx="4"/>
<rect x="959.2" y="899.5" width="140.0" height="94.0" fill="#e8556d" rx="4"/>
<rect x="1937.6" y="609.4" width="140.1" height="94.0" fill="#e8556d" rx="4"/>
<rect x="1937.6" y="719.4" width="140.0" height="94.0" fill="#e8556d" rx="4"/>
<rect x="1435.1" y="657.2" width="140.1" height="94.0" fill="#e8556d" rx="4"/>
<rect x="1435.1" y="767.2" width="140.0" height="94.0" fill="#e8556d" rx="4"/>
<rect x="1720.9" y="1066.2" width="140.1" height="94.0" fill="#e8556d" rx="4"/>
<rect x="1720.9" y="1176.2" width="140.0" height="94.0" fill="#e8556d" rx="4"/>
<rect x="656.6" y="1528.6" width="140.1" height="94.0" fill="#e8556d" rx="4"/>
<rect x="656.7" y="1638.6" width="140.0" height="94.0" fill="#e8556d" rx="4"/>
<rect x="544.3" y="1044.1" width="140.1" height="94.0" fill="#e8556d" rx="4"/>
<rect x="544.4" y="1154.1" width="140.0" height="94.0" fill="#e8556d" rx="4"/>
<rect x="1234.4" y="1196.0" width="140.1" height="94.0" fill="#e8556d" rx="4"/>
<rect x="1234.5" y="1306.0" width="140.0" height="94.0" fill="#e8556d" rx="4"/>
<rect x="1552.5" y="3093.9" width="140.0" height="94.0" fill="#e8556d" rx="4"/>
<rect x="1552.5" y="3203.9" width="140.0" height="94.0" fill="#e8556d" rx="4"/>
<rect x="721.5" y="2041.1" width="140.0" height="94.0" fill="#e8556d" rx="4"/>
<rect x="721.5" y="2151.1" width="140.0" height="94.0" fill="#e8556d" rx="4"/>
<rect x="1328.7" y="2659.2" width="140.0" height="94.0" fill="#e8556d" rx="4"/>
<rect x="1328.7" y="2769.2" width="140.0" height="94.0" fill="#e8556d" rx="4"/>
<rect x="4818.0" y="1611.6" width="140.0" height="94.0" fill="#e8556d" rx="4"/>
<rect x="4818.0" y="1721.6" width="140.0" height="94.0" fill="#e8556d" rx="4"/>
<rect x="718.6" y="5172.3" width="140.0" height="94.0" fill="#e8556d" rx="4"/>
<rect x="718.6" y="5282.3" width="140.0" height="94.0" fill="#e8556d" rx="4"/>
<rect x="1650.9" y="5409.7" width="140.0" height="94.0" fill="#e8556d" rx="4"/>
<rect x="1650.9" y="5519.7" width="140.0" height="94.0" fill="#e8556d" rx="4"/>
<rect x="1067.8" y="4807.5" width="140.0" height="94.0" fill="#e8556d" rx="4"/>
<rect x="1067.8" y="4917.5" width="140.0" height="94.0" fill="#e8556d" rx="4"/>
<rect x="581.6" y="4666.9" width="140.0" height="94.0" fill="#e8556d" rx="4"/>
<rect x="581.6" y="4776.9" width="140.0" height="94.0" fill="#e8556d" rx="4"/>
<rect x="1206.0" y="5268.1" width="140.0" height="94.0" fill="#e8556d" rx="4"/>
<rect x="1206.0" y="5378.1" width="140.0" height="94.0" fill="#e8556d" rx="4"/>
<rect x="2932.4" y="5429.7" width="140.0" height="94.0" fill="#e8556d" rx="4"/>
<rect x="2932.4" y="5539.7" width="140.0" height="94.0" fill="#e8556d" rx="4"/>
<rect x="1963.2" y="2771.7" width="140.0" height="94.0" fill="#e8556d" rx="4"/>
<rect x="1963.2" y="2881.7" width="140.0" height="94.0" fill="#e8556d" rx="4"/>
<rect x="965.2" y="4304.0" width="140.0" height="94.0" fill="#e8556d" rx="4"/>
<rect x="965.2" y="4414.0" width="140.0" height="94.0" fill="#e8556d" rx="4"/>
<rect x="1556.6" y="4962.6" width="140.0" height="94.0" fill="#e8556d" rx="4"/>
<rect x="1556.6" y="5072.6" width="140.0" height="94.0" fill="#e8556d" rx="4"/>
<rect x="1690.3" y="5908.8" width="140.0" height="94.0" fill="#e8556d" rx="4"/>
<rect x="1690.3" y="6018.8" width="140.0" height="94.0" fill="#e8556d" rx="4"/>
<rect x="4513.0" y="546.7" width="140.0" height="94.0" fill="#e8556d" rx="4"/>
<rect x="4513.0" y="656.7" width="140.0" height="94.0" fill="#e8556d" rx="4"/>
<rect x="5039.6" y="6050.1" width="140.0" height="94.0" fill="#e8556d" rx="4"/>
<rect x="5039.6" y="6160.1" width="140.0" height="94.0" fill="#e8556d" rx="4"/>
<rect x="4526.4" y="5825.4" width="140.0" height="94.0" fill="#e8556d" rx="4"/>
<rect x="4526.4" y="5935.4" width="140.0" height="94.0" fill="#e8556d" rx="4"/>
<rect x="4492.8" y="4147.3" width="140.0" height="94.0" fill="#e8556d" rx="4"/>
<rect x="4492.8" y="4257.3" width="140.0" height="94.0" fill="#e8556d" rx="4"/>
<rect x="4039.3" y="4259.7" width="140.0" height="94.0" fill="#e8556d" rx="4"/>
<rect x="4039.3" y="4369.7" width="140.0" height="94.0" fill="#e8556d" rx="4"/>
<rect x="5622.7" y="4518.5" width="140.0" height="94.0" fill="#e8556d" rx="4"/>
<rect x="5622.7" y="4628.5" width="140.0" height="94.0" fill="#e8556d" rx="4"/>
<rect x="4392.8" y="5330.0" width="140.0" height="94.0" fill="#e8556d" rx="4"/>
<rect x="4392.8" y="5440.0" width="140.0" height="94.0" fill="#e8556d" rx="4"/>
<rect x="4958.5" y="5537.4" width="140.0" height="94.0" fill="#e8556d" rx="4"/>
<rect x="4958.5" y="5647.4" width="140.0" height="94.0" fill="#e8556d" rx="4"/>
<rect x="5479.5" y="5536.5" width="140.0" height="94.0" fill="#e8556d" rx="4"/>
<rect x="5479.5" y="5646.5" width="140.0" height="94.0" fill="#e8556d" rx="4"/>
<rect x="5161.6" y="3705.9" width="140.0" height="94.0" fill="#e8556d" rx="4"/>
<rect x="5161.6" y="3815.9" width="140.0" height="94.0" fill="#e8556d" rx="4"/>
<rect x="5148.1" y="4610.1" width="140.0" height="94.0" fill="#e8556d" rx="4"/>
<rect x="5148.1" y="4720.1" width="140.0" height="94.0" fill="#e8556d" rx="4"/>
<rect x="2532.4" y="1370.8" width="140.0" height="94.0" fill="#e8556d" rx="4"/>
<rect x="2532.4" y="1480.8" width="140.0" height="94.0" fill="#e8556d" rx="4"/>
<rect x="4820.3" y="5039.7" width="140.0" height="94.0" fill="#e8556d" rx="4"/>
<rect x="4820.3" y="5149.7" width="140.0" height="94.0" fill="#e8556d" rx="4"/>
<rect x="4134.9" y="2942.1" width="140.0" height="94.0" fill="#e8556d" rx="4"/>
<rect x="4134.9" y="3052.1" width="140.0" height="94.0" fill="#e8556d" rx="4"/>
<rect x="4262.7" y="4858.6" width="140.0" height="94.0" fill="#e8556d" rx="4"/>
<rect x="4262.7" y="4968.6" width="140.0" height="94.0" fill="#e8556d" rx="4"/>
<rect x="3863.3" y="2535.2" width="140.0" height="94.0" fill="#e8556d" rx="4"/>
<rect x="3863.3" y="2645.2" width="140.0" height="94.0" fill="#e8556d" rx="4"/>
<rect x="4538.5" y="2059.6" width="140.0" height="94.0" fill="#e8556d" rx="4"/>
<rect x="4538.5" y="2169.6" width="140.0" height="94.0" fill="#e8556d" rx="4"/>
<rect x="5106.7" y="2913.1" width="140.0" height="94.0" fill="#e8556d" rx="4"/>
<rect x="5106.7" y="3023.1" width="140.0" height="94.0" fill="#e8556d" rx="4"/>
<rect x="1450.6" y="4487.3" width="140.0" height="94.0" fill="#e8556d" rx="4"/>
<rect x="1450.6" y="4597.3" width="140.0" height="94.0" fill="#e8556d" rx="4"/>
<rect x="5348.3" y="1688.8" width="140.0" height="94.0" fill="#e8556d" rx="4"/>
<rect x="5348.3" y="1798.8" width="140.0" height="94.0" fill="#e8556d" rx="4"/>
<rect x="1346.0" y="3948.0" width="140.0" height="94.0" fill="#e8556d" rx="4"/>
<rect x="1346.0" y="4058.0" width="140.0" height="94.0" fill="#e8556d" rx="4"/>
<rect x="3545.5" y="4278.8" width="140.0" height="94.0" fill="#e8556d" rx="4"/>
<rect x="3545.5" y="4388.8" width="140.0" height="94.0" fill="#e8556d" rx="4"/>
<rect x="2745.2" y="940.0" width="140.0" height="94.0" fill="#e8556d" rx="4"/>
<rect x="2745.2" y="1050.0" width="140.0" height="94.0" fill="#e8556d" rx="4"/>
<rect x="3288.1" y="1760.9" width="140.0" height="94.0" fill="#e8556d" rx="4"/>
<rect x="3288.1" y="1870.9" width="140.0" height="94.0" fill="#e8556d" rx="4"/>
<rect x="3291.9" y="3886.0" width="140.0" height="94.0" fill="#e8556d" rx="4"/>
<rect x="3291.9" y="3996.0" width="140.0" height="94.0" fill="#e8556d" rx="4"/>
<rect x="4637.1" y="4566.5" width="140.0" height="94.0" fill="#e8556d" rx="4"/>
<rect x="4637.1" y="4676.5" width="140.0" height="94.0" fill="#e8556d" rx="4"/>
<rect x="3528.3" y="1317.4" width="140.0" height="94.0" fill="#e8556d" rx="4"/>
<rect x="3528.3" y="1427.4" width="140.0" height="94.0" fill="#e8556d" rx="4"/>
<rect x="2950.6" y="3512.4" width="140.0" height="94.0" fill="#e8556d" rx="4"/>
<rect x="2950.6" y="3622.4" width="140.0" height="94.0" fill="#e8556d" rx="4"/>
<rect x="2036.2" y="1436.2" width="140.0" height="94.0" fill="#e8556d" rx="4"/>
<rect x="2036.2" y="1546.2" width="140.0" height="94.0" fill="#e8556d" rx="4"/>
<rect x="3897.7" y="5189.9" width="140.0" height="94.0" fill="#e8556d" rx="4"/>
<rect x="3897.7" y="5299.9" width="140.0" height="94.0" fill="#e8556d" rx="4"/>
<rect x="4958.9" y="4138.1" width="140.0" height="94.0" fill="#e8556d" rx="4"/>
<rect x="4958.9" y="4248.1" width="140.0" height="94.0" fill="#e8556d" rx="4"/>
<rect x="3997.3" y="1278.8" width="140.0" height="94.0" fill="#e8556d" rx="4"/>
<rect x="3997.3" y="1388.8" width="140.0" height="94.0" fill="#e8556d" rx="4"/>
<rect x="5026.0" y="2062.2" width="140.0" height="94.0" fill="#e8556d" rx="4"/>
<rect x="5026.0" y="2172.2" width="140.0" height="94.0" fill="#e8556d" rx="4"/>
<rect x="2444.4" y="540.2" width="140.0" height="94.0" fill="#e8556d" rx="4"/>
<rect x="2444.4" y="650.2" width="140.0" height="94.0" fill="#e8556d" rx="4"/>
<rect x="371.6" y="2416.1" width="140.0" height="94.0" fill="#e8556d" rx="4"/>
<rect x="371.6" y="2526.1" width="140.0" height="94.0" fill="#e8556d" rx="4"/>
<rect x="564.4" y="2897.6" width="140.0" height="94.0" fill="#e8556d" rx="4"/>
<rect x="564.4" y="3007.6" width="140.0" height="94.0" fill="#e8556d" rx="4"/>
<rect x="116.6" y="3184.6" width="140.0" height="94.0" fill="#e8556d" rx="4"/>
<rect x="116.6" y="3294.6" width="140.0" height="94.0" fill="#e8556d" rx="4"/>
<rect x="0.0" y="3975.2" width="140.0" height="94.0" fill="#e8556d" rx="4"/>
<rect x="0.0" y="4085.2" width="140.0" height="94.0" fill="#e8556d" rx="4"/>
<rect x="884.7" y="2510.0" width="140.0" height="94.0" fill="#e8556d" rx="4"/>
<rect x="884.7" y="2620.0" width="140.0" height="94.0" fill="#e8556d" rx="4"/>
<rect x="1848.0" y="1877.4" width="140.0" height="94.0" fill="#e8556d" rx="4"/>
<rect x="1848.0" y="1987.4" width="140.0" height="94.0" fill="#e8556d" rx="4"/>
<rect x="2047.8" y="3765.2" width="140.0" height="94.0" fill="#e8556d" rx="4"/>
<rect x="2047.8" y="3875.2" width="140.0" height="94.0" fill="#e8556d" rx="4"/>
<rect x="2111.3" y="5589.2" width="140.0" height="94.0" fill="#e8556d" rx="4"/>
<rect x="2111.3" y="5699.2" width="140.0" height="94.0" fill="#e8556d" rx="4"/>
<rect x="2341.7" y="1821.1" width="140.0" height="94.0" fill="#e8556d" rx="4"/>
<rect x="2341.7" y="1931.1" width="140.0" height="94.0" fill="#e8556d" rx="4"/>
<rect x="735.3" y="3355.2" width="140.0" height="94.0" fill="#e8556d" rx="4"/>
<rect x="735.3" y="3465.2" width="140.0" height="94.0" fill="#e8556d" rx="4"/>
<rect x="3235.8" y="895.6" width="140.0" height="94.0" fill="#e8556d" rx="4"/>
<rect x="3235.8" y="1005.6" width="140.0" height="94.0" fill="#e8556d" rx="4"/>
<rect x="4620.1" y="6307.5" width="140.0" height="94.0" fill="#e8556d" rx="4"/>
<rect x="4620.1" y="6417.5" width="140.0" height="94.0" fill="#e8556d" rx="4"/>
<rect x="3821.2" y="4699.9" width="140.0" height="94.0" fill="#e8556d" rx="4"/>
<rect x="3821.2" y="4809.9" width="140.0" height="94.0" fill="#e8556d" rx="4"/>
<rect x="4164.6" y="6184.2" width="140.0" height="94.0" fill="#e8556d" rx="4"/>
<rect x="4164.6" y="6294.2" width="140.0" height="94.0" fill="#e8556d" rx="4"/>
<rect x="4019.7" y="5698.7" width="140.0" height="94.0" fill="#e8556d" rx="4"/>
<rect x="4019.7" y="5808.7" width="140.0" height="94.0" fill="#e8556d" rx="4"/>
<rect x="2634.4" y="4450.3" width="140.0" height="94.0" fill="#e8556d" rx="4"/>
<rect x="2634.4" y="4560.3" width="140.0" height="94.0" fill="#e8556d" rx="4"/>
<rect x="3670.1" y="6150.2" width="140.0" height="94.0" fill="#e8556d" rx="4"/>
<rect x="3670.1" y="6260.2" width="140.0" height="94.0" fill="#e8556d" rx="4"/>
<rect x="3060.6" y="5930.6" width="140.0" height="94.0" fill="#e8556d" rx="4"/>
<rect x="3060.6" y="6040.6" width="140.0" height="94.0" fill="#e8556d" rx="4"/>
<rect x="2010.2" y="5094.4" width="140.0" height="94.0" fill="#e8556d" rx="4"/>
<rect x="2010.2" y="5204.4" width="140.0" height="94.0" fill="#e8556d" rx="4"/>
<rect x="3574.2" y="2156.4" width="140.0" height="94.0" fill="#e8556d" rx="4"/>
<rect x="3574.2" y="2266.4" width="140.0" height="94.0" fill="#e8556d" rx="4"/>
<rect x="2653.7" y="3087.8" width="140.0" height="94.0" fill="#e8556d" rx="4"/>
<rect x="2653.7" y="3197.8" width="140.0" height="94.0" fill="#e8556d" rx="4"/>
<rect x="4971.5" y="535.2" width="140.0" height="94.0" fill="#e8556d" rx="4"/>
<rect x="4971.5" y="645.2" width="140.0" height="94.0" fill="#e8556d" rx="4"/>
<rect x="3380.7" y="5203.0" width="140.0" height="94.0" fill="#e8556d" rx="4"/>
<rect x="3380.7" y="5313.0" width="140.0" height="94.0" fill="#e8556d" rx="4"/>
<rect x="3896.8" y="3408.4" width="140.0" height="94.0" fill="#e8556d" rx="4"/>
<rect x="3896.8" y="3518.4" width="140.0" height="94.0" fill="#e8556d" rx="4"/>
<rect x="1179.7" y="3472.0" width="140.0" height="94.0" fill="#e8556d" rx="4"/>
<rect x="1179.7" y="3582.0" width="140.0" height="94.0" fill="#e8556d" rx="4"/>
<rect x="1666.6" y="2344.3" width="140.0" height="94.0" fill="#e8556d" rx="4"/>
<rect x="1666.6" y="2454.3" width="140.0" height="94.0" fill="#e8556d" rx="4"/>
<rect x="1782.0" y="4132.6" width="140.0" height="94.0" fill="#e8556d" rx="4"/>
<rect x="1782.0" y="4242.6" width="140.0" height="94.0" fill="#e8556d" rx="4"/>
<rect x="3333.1" y="4697.3" width="140.0" height="94.0" fill="#e8556d" rx="4"/>
<rect x="3333.1" y="4807.3" width="140.0" height="94.0" fill="#e8556d" rx="4"/>
<rect x="1965.7" y="4588.3" width="140.0" height="94.0" fill="#e8556d" rx="4"/>
<rect x="1965.7" y="4698.3" width="140.0" height="94.0" fill="#e8556d" rx="4"/>
<rect x="4202.0" y="3806.0" width="140.0" height="94.0" fill="#e8556d" rx="4"/>
<rect x="4202.0" y="3916.0" width="140.0" height="94.0" fill="#e8556d" rx="4"/>
<rect x="1645.3" y="3571.3" width="140.0" height="94.0" fill="#e8556d" rx="4"/>
<rect x="1645.3" y="3681.3" width="140.0" height="94.0" fill="#e8556d" rx="4"/>
<rect x="2862.0" y="4912.5" width="140.0" height="94.0" fill="#e8556d" rx="4"/>
<rect x="2862.0" y="5022.5" width="140.0" height="94.0" fill="#e8556d" rx="4"/>
<rect x="4767.9" y="952.8" width="140.0" height="94.0" fill="#e8556d" rx="4"/>
<rect x="4767.9" y="1062.8" width="140.0" height="94.0" fill="#e8556d" rx="4"/>
<rect x="4704.0" y="3741.9" width="140.0" height="94.0" fill="#e8556d" rx="4"/>
<rect x="4704.0" y="3851.9" width="140.0" height="94.0" fill="#e8556d" rx="4"/>
<rect x="2151.4" y="2266.8" width="140.0" height="94.0" fill="#e8556d" rx="4"/>
<rect x="2151.4" y="2376.8" width="140.0" height="94.0" fill="#e8556d" rx="4"/>
<rect x="3020.1" y="1341.8" width="140.0" height="94.0" fill="#e8556d" rx="4"/>
<rect x="3020.1" y="1451.8" width="140.0" height="94.0" fill="#e8556d" rx="4"/>
<rect x="4227.6" y="894.0" width="140.0" height="94.0" fill="#e8556d" rx="4"/>
<rect x="4227.6" y="1004.0" width="140.0" height="94.0" fill="#e8556d" rx="4"/>
<rect x="5144.3" y="1232.5" width="140.0" height="94.0" fill="#e8556d" rx="4"/>
<rect x="5144.3" y="1342.5" width="140.0" height="94.0" fill="#e8556d" rx="4"/>
<rect x="4804.0" y="2477.9" width="140.0" height="94.0" fill="#e8556d" rx="4"/>
<rect x="4804.0" y="2587.9" width="140.0" height="94.0" fill="#e8556d" rx="4"/>
<rect x="2451.1" y="2643.2" width="140.0" height="94.0" fill="#e8556d" rx="4"/>
<rect x="2451.1" y="2753.2" width="140.0" height="94.0" fill="#e8556d" rx="4"/>
<rect x="4219.7" y="1687.1" width="140.0" height="94.0" fill="#e8556d" rx="4"/>
<rect x="4219.7" y="1797.1" width="140.0" height="94.0" fill="#e8556d" rx="4"/>
<rect x="4408.0" y="3368.3" width="140.0" height="94.0" fill="#e8556d" rx="4"/>
<rect x="4408.0" y="3478.3" width="140.0" height="94.0" fill="#e8556d" rx="4"/>
<rect x="4449.6" y="1285.7" width="140.0" height="94.0" fill="#e8556d" rx="4"/>
<rect x="4449.6" y="1395.7" width="140.0" height="94.0" fill="#e8556d" rx="4"/>
</svg>