<svg xmlns="http://www.w3.org/2000/svg" viewBox="-131.70933675353692 -99.74065123947005 6289.76229997893 6128.723346812045" width="900">
<rect x="-131.70933675353692" y="-99.74065123947005" width="6289.76229997893" height="6128.723346812045" fill="#eef0f4"/>
<circle cx="4497.9" cy="261.3" r="141.7" fill="#c9cfdd" stroke="#98a2b8" stroke-width="3"/>
<circle cx="3123.4" cy="1092.3" r="141.7" fill="#c9cfdd" stroke="#98a2b8" stroke-width="3"/>
<circle cx="454.3" cy="3507.7" r="141.7" fill="#c9cfdd" stroke="#98a2b8" stroke-width="3"/>
<circle cx="3548.1" cy="3881.7" r="141.7" fill="#c9cfdd" stroke="#98a2b8" stroke-width="3"/>
<circle cx="1596.0" cy="3276.0" r="141.7" fill="#c9cfdd" stroke="#98a2b8" stroke-width="3"/>
<circle cx="2267.2" cy="5691.0" r="141.7" fill="#c9cfdd" stroke="#98a2b8" stroke-width="3"/>
<circle cx="1711.6" cy="5512.5" r="141.7" fill="#c9cfdd" stroke="#98a2b8" stroke-width="3"/>
<circle cx="2920.7" cy="5827.3" r="141.7" fill="#c9cfdd" stroke="#98a2b8" stroke-width="3"/>
<circle cx="2091.5" cy="5283.8" r="141.7" fill="#c9cfdd" stroke="#98a2b8" stroke-width="3"/>
<circle cx="3680.1" cy="4898.3" r="141.7" fill="#c9cfdd" stroke="#98a2b8" stroke-width="3"/>
<circle cx="2846.2" cy="4819.0" r="141.7" fill="#c9cfdd" stroke="#98a2b8" stroke-width="3"/>
<circle cx="2057.8" cy="4841.7" r="141.7" fill="#c9cfdd" stroke="#98a2b8" stroke-width="3"/>
<circle cx="2012.5" cy="2168.8" r="141.7" fill="#c9cfdd" stroke="#98a2b8" stroke-width="3"/>
<circle cx="1229.8" cy="2585.1" r="141.7" fill="#c9cfdd" stroke="#98a2b8" stroke-width="3"/>
<circle cx="3197.5" cy="2759.6" r="141.7" fill="#c9cfdd" stroke="#98a2b8" stroke-width="3"/>
<circle cx="1989.9" cy="3957.5" r="141.7" fill="#c9cfdd" stroke="#98a2b8" stroke-width="3"/>
<circle cx="2230.8" cy="1297.5" r="141.7" fill="#c9cfdd" stroke="#98a2b8" stroke-width="3"/>
<circle cx="2751.7" cy="3492.3" r="141.7" fill="#c9cfdd" stroke="#98a2b8" stroke-width="3"/>
<circle cx="948.6" cy="1781.8" r="141.7" fill="#c9cfdd" stroke="#98a2b8" stroke-width="3"/>
<circle cx="2680.8" cy="1117.9" r="141.7" fill="#c9cfdd" stroke="#98a2b8" stroke-width="3"/>
<circle cx="1345.6" cy="1584.3" r="141.7" fill="#c9cfdd" stroke="#98a2b8" stroke-width="3"/>
<circle cx="2409.7" cy="2854.5" r="141.7" fill="#c9cfdd" stroke="#98a2b8" stroke-width="3"/>
<circle cx="177.9" cy="2220.7" r="141.7" fill="#c9cfdd" stroke="#98a2b8" stroke-width="3"/>
<circle cx="464.9" cy="3033.9" r="141.7" fill="#c9cfdd" stroke="#98a2b8" stroke-width="3"/>
<circle cx="836.0" cy="3733.4" r="141.7" fill="#c9cfdd" stroke="#98a2b8" stroke-width="3"/>
<circle cx="1641.8" cy="289.0" r="141.7" fill="#c9cfdd" stroke="#98a2b8" stroke-width="3"/>
<circle cx="1980.3" cy="575.4" r="141.7" fill="#c9cfdd" stroke="#98a2b8" stroke-width="3"/>
<circle cx="2149.6" cy="1746.7" r="141.7" fill="#c9cfdd" stroke="#98a2b8" stroke-width="3"/>
<circle cx="2141.0" cy="162.1" r="141.7" fill="#c9cfdd" stroke="#98a2b8" stroke-width="3"/>
<circle cx="2814.9" cy="160.1" r="141.7" fill="#c9cfdd" stroke="#98a2b8" stroke-width="3"/>
<circle cx="1893.0" cy="1010.2" r="141.7" fill="#c9cfdd" stroke="#98a2b8" stroke-width="3"/>
<circle cx="3491.3" cy="102.0" r="141.7" fill="#c9cfdd" stroke="#98a2b8" stroke-width="3"/>
<circle cx="2478.8" cy="449.4" r="141.7" fill="#c9cfdd" stroke="#98a2b8" stroke-width="3"/>
<circle cx="4061.9" cy="149.5" r="141.7" fill="#c9cfdd" stroke="#98a2b8" stroke-width="3"/>
<circle cx="3177.5" cy="415.3" r="141.7" fill="#c9cfdd" stroke="#98a2b8" stroke-width="3"/>
<circle cx="1216.0" cy="3504.9" r="141.7" fill="#c9cfdd" stroke="#98a2b8" stroke-width="3"/>
<circle cx="5276.3" cy="1665.8" r="141.7" fill="#c9cfdd" stroke="#98a2b8" stroke-width="3"/>
<circle cx="5719.7" cy="1659.7" r="141.7" fill="#c9cfdd" stroke="#98a2b8" stroke-width="3"/>
<circle cx="4849.6" cy="1545.0" r="141.7" fill="#c9cfdd" stroke="#98a2b8" stroke-width="3"/>
<circle cx="5605.9" cy="1231.1" r="141.7" fill="#c9cfdd" stroke="#98a2b8" stroke-width="3"/>
<circle cx="5943.3" cy="2518.0" r="141.7" fill="#c9cfdd" stroke="#98a2b8" stroke-width="3"/>
<circle cx="5832.2" cy="2088.7" r="141.7" fill="#c9cfdd" stroke="#98a2b8" stroke-width="3"/>
<circle cx="5956.3" cy="2961.2" r="141.7" fill="#c9cfdd" stroke="#98a2b8" stroke-width="3"/>
<circle cx="5500.7" cy="2545.7" r="141.7" fill="#c9cfdd" stroke="#98a2b8" stroke-width="3"/>
<circle cx="3794.1" cy="2057.3" r="141.7" fill="#c9cfdd" stroke="#98a2b8" stroke-width="3"/>
<circle cx="3990.1" cy="1316.6" r="141.7" fill="#c9cfdd" stroke="#98a2b8" stroke-width="3"/>
<circle cx="2520.3" cy="1990.1" r="141.7" fill="#c9cfdd" stroke="#98a2b8" stroke-width="3"/>
<circle cx="5389.0" cy="2103.0" r="141.7" fill="#c9cfdd" stroke="#98a2b8" stroke-width="3"/>
<circle cx="3579.0" cy="2985.6" r="141.7" fill="#c9cfdd" stroke="#98a2b8" stroke-width="3"/>
<circle cx="5162.5" cy="1230.7" r="141.7" fill="#c9cfdd" stroke="#98a2b8" stroke-width="3"/>
<circle cx="2812.5" cy="4376.8" r="141.7" fill="#c9cfdd" stroke="#98a2b8" stroke-width="3"/>
<circle cx="4164.2" cy="4165.2" r="141.7" fill="#c9cfdd" stroke="#98a2b8" stroke-width="3"/>
<circle cx="5076.2" cy="2417.4" r="141.7" fill="#c9cfdd" stroke="#98a2b8" stroke-width="3"/>
<circle cx="4421.3" cy="1430.3" r="141.7" fill="#c9cfdd" stroke="#98a2b8" stroke-width="3"/>
<circle cx="4536.3" cy="1858.9" r="141.7" fill="#c9cfdd" stroke="#98a2b8" stroke-width="3"/>
<circle cx="4335.5" cy="2606.5" r="141.7" fill="#c9cfdd" stroke="#98a2b8" stroke-width="3"/>
<circle cx="2593.4" cy="1552.7" r="141.7" fill="#c9cfdd" stroke="#98a2b8" stroke-width="3"/>
<circle cx="834.3" cy="3279.3" r="141.7" fill="#c9cfdd" stroke="#98a2b8" stroke-width="3"/>
<circle cx="5755.3" cy="4207.4" r="141.7" fill="#c9cfdd" stroke="#98a2b8" stroke-width="3"/>
<circle cx="5052.4" cy="4003.6" r="141.7" fill="#c9cfdd" stroke="#98a2b8" stroke-width="3"/>
<circle cx="3054.2" cy="2262.0" r="141.7" fill="#c9cfdd" stroke="#98a2b8" stroke-width="3"/>
<circle cx="5334.1" cy="4346.1" r="141.7" fill="#c9cfdd" stroke="#98a2b8" stroke-width="3"/>
<circle cx="5753.5" cy="3520.9" r="141.7" fill="#c9cfdd" stroke="#98a2b8" stroke-width="3"/>
<circle cx="5186.0" cy="2858.0" r="141.7" fill="#c9cfdd" stroke="#98a2b8" stroke-width="3"/>
<circle cx="5473.6" cy="3864.9" r="141.7" fill="#c9cfdd" stroke="#98a2b8" stroke-width="3"/>
<circle cx="5542.8" cy="3121.3" r="141.7" fill="#c9cfdd" stroke="#98a2b8" stroke-width="3"/>
<circle cx="1599.2" cy="2830.4" r="141.7" fill="#c9cfdd" stroke="#98a2b8" stroke-width="3"/>
<circle cx="1969.8" cy="3514.5" r="141.7" fill="#c9cfdd" stroke="#98a2b8" stroke-width="3"/>
<circle cx="900.7" cy="2287.9" r="141.7" fill="#c9cfdd" stroke="#98a2b8" stroke-width="3"/>
<circle cx="1137.2" cy="874.0" r="141.7" fill="#c9cfdd" stroke="#98a2b8" stroke-width="3"/>
<circle cx="1215.7" cy="437.5" r="141.7" fill="#c9cfdd" stroke="#98a2b8" stroke-width="3"/>
<circle cx="1683.4" cy="1871.6" r="141.7" fill="#c9cfdd" stroke="#98a2b8" stroke-width="3"/>
<circle cx="1554.4" cy="723.8" r="141.7" fill="#c9cfdd" stroke="#98a2b8" stroke-width="3"/>
<circle cx="610.0" cy="1495.4" r="141.7" fill="#c9cfdd" stroke="#98a2b8" stroke-width="3"/>
<circle cx="791.3" cy="596.6" r="141.7" fill="#c9cfdd" stroke="#98a2b8" stroke-width="3"/>
<circle cx="661.1" cy="1020.5" r="141.7" fill="#c9cfdd" stroke="#98a2b8" stroke-width="3"/>
<circle cx="844.8" cy="2805.1" r="141.7" fill="#c9cfdd" stroke="#98a2b8" stroke-width="3"/>
<circle cx="515.7" cy="2507.9" r="141.7" fill="#c9cfdd" stroke="#98a2b8" stroke-width="3"/>
<circle cx="562.9" cy="2000.7" r="141.7" fill="#c9cfdd" stroke="#98a2b8" stroke-width="3"/>
<circle cx="4185.0" cy="575.5" r="141.7" fill="#c9cfdd" stroke="#98a2b8" stroke-width="3"/>
<circle cx="451.4" cy="3955.1" r="141.7" fill="#c9cfdd" stroke="#98a2b8" stroke-width="3"/>
<circle cx="1297.9" cy="5298.8" r="141.7" fill="#c9cfdd" stroke="#98a2b8" stroke-width="3"/>
<circle cx="825.6" cy="4193.0" r="141.7" fill="#c9cfdd" stroke="#98a2b8" stroke-width="3"/>
<circle cx="1589.9" cy="3743.3" r="141.7" fill="#c9cfdd" stroke="#98a2b8" stroke-width="3"/>
<circle cx="2017.1" cy="4400.1" r="141.7" fill="#c9cfdd" stroke="#98a2b8" stroke-width="3"/>
<circle cx="445.2" cy="4420.8" r="141.7" fill="#c9cfdd" stroke="#98a2b8" stroke-width="3"/>
<circle cx="873.5" cy="5079.7" r="141.7" fill="#c9cfdd" stroke="#98a2b8" stroke-width="3"/>
<circle cx="845.7" cy="4635.9" r="141.7" fill="#c9cfdd" stroke="#98a2b8" stroke-width="3"/>
<circle cx="1257.1" cy="4857.3" r="141.7" fill="#c9cfdd" stroke="#98a2b8" stroke-width="3"/>
<circle cx="1677.9" cy="5070.4" r="141.7" fill="#c9cfdd" stroke="#98a2b8" stroke-width="3"/>
<circle cx="4963.0" cy="1979.7" r="141.7" fill="#c9cfdd" stroke="#98a2b8" stroke-width="3"/>
<circle cx="4261.1" cy="5575.8" r="141.7" fill="#c9cfdd" stroke="#98a2b8" stroke-width="3"/>
<circle cx="4268.6" cy="4895.7" r="141.7" fill="#c9cfdd" stroke="#98a2b8" stroke-width="3"/>
<circle cx="4443.0" cy="3038.2" r="141.7" fill="#c9cfdd" stroke="#98a2b8" stroke-width="3"/>
<circle cx="2810.3" cy="3052.7" r="141.7" fill="#c9cfdd" stroke="#98a2b8" stroke-width="3"/>
<circle cx="5011.8" cy="5189.8" r="141.7" fill="#c9cfdd" stroke="#98a2b8" stroke-width="3"/>
<circle cx="4549.3" cy="5238.9" r="141.7" fill="#c9cfdd" stroke="#98a2b8" stroke-width="3"/>
<circle cx="5177.4" cy="4762.0" r="141.7" fill="#c9cfdd" stroke="#98a2b8" stroke-width="3"/>
<circle cx="3174.5" cy="4120.7" r="141.7" fill="#c9cfdd" stroke="#98a2b8" stroke-width="3"/>
<circle cx="4611.7" cy="4079.0" r="141.7" fill="#c9cfdd" stroke="#98a2b8" stroke-width="3"/>
<circle cx="4740.7" cy="4838.9" r="141.7" fill="#c9cfdd" stroke="#98a2b8" stroke-width="3"/>
<circle cx="2318.1" cy="862.7" r="141.7" fill="#c9cfdd" stroke="#98a2b8" stroke-width="3"/>
<circle cx="4896.6" cy="4418.8" r="141.7" fill="#c9cfdd" stroke="#98a2b8" stroke-width="3"/>
<circle cx="4016.9" cy="2915.7" r="141.7" fill="#c9cfdd" stroke="#98a2b8" stroke-width="3"/>
<circle cx="4761.5" cy="2729.7" r="141.7" fill="#c9cfdd" stroke="#98a2b8" stroke-width="3"/>
<circle cx="3908.9" cy="2485.6" r="141.7" fill="#c9cfdd" stroke="#98a2b8" stroke-width="3"/>
<circle cx="4411.6" cy="3683.3" r="141.7" fill="#c9cfdd" stroke="#98a2b8" stroke-width="3"/>
<circle cx="5270.0" cy="3470.9" r="141.7" fill="#c9cfdd" stroke="#98a2b8" stroke-width="3"/>
<circle cx="4459.9" cy="4495.7" r="141.7" fill="#c9cfdd" stroke="#98a2b8" stroke-width="3"/>
<circle cx="2374.9" cy="3737.4" r="141.7" fill="#c9cfdd" stroke="#98a2b8" stroke-width="3"/>
<circle cx="4108.0" cy="1744.1" r="141.7" fill="#c9cfdd" stroke="#98a2b8" stroke-width="3"/>
<circle cx="3246.5" cy="1518.3" r="141.7" fill="#c9cfdd" stroke="#98a2b8" stroke-width="3"/>
<circle cx="3748.6" cy="463.3" r="141.7" fill="#c9cfdd" stroke="#98a2b8" stroke-width="3"/>
<circle cx="1007.0" cy="1297.9" r="141.7" fill="#c9cfdd" stroke="#98a2b8" stroke-width="3"/>
<circle cx="3871.7" cy="889.3" r="141.7" fill="#c9cfdd" stroke="#98a2b8" stroke-width="3"/>
<circle cx="3213.6" cy="3236.9" r="141.7" fill="#c9cfdd" stroke="#98a2b8" stroke-width="3"/>
<circle cx="3975.6" cy="3763.9" r="141.7" fill="#c9cfdd" stroke="#98a2b8" stroke-width="3"/>
<circle cx="2354.8" cy="3294.5" r="141.7" fill="#c9cfdd" stroke="#98a2b8" stroke-width="3"/>
<circle cx="3471.8" cy="2411.2" r="141.7" fill="#c9cfdd" stroke="#98a2b8" stroke-width="3"/>
<circle cx="2779.9" cy="2610.4" r="141.7" fill="#c9cfdd" stroke="#98a2b8" stroke-width="3"/>
<circle cx="3676.2" cy="1629.8" r="141.7" fill="#c9cfdd" stroke="#98a2b8" stroke-width="3"/>
<circle cx="4303.4" cy="1002.8" r="141.7" fill="#c9cfdd" stroke="#98a2b8" stroke-width="3"/>
<circle cx="2383.4" cy="2411.8" r="141.7" fill="#c9cfdd" stroke="#98a2b8" stroke-width="3"/>
<circle cx="3434.7" cy="776.5" r="141.7" fill="#c9cfdd" stroke="#98a2b8" stroke-width="3"/>
<circle cx="224.3" cy="1714.3" r="141.7" fill="#c9cfdd" stroke="#98a2b8" stroke-width="3"/>
<circle cx="135.9" cy="2736.7" r="141.7" fill="#c9cfdd" stroke="#98a2b8" stroke-width="3"/>
<circle cx="84.9" cy="3262.4" r="141.7" fill="#c9cfdd" stroke="#98a2b8" stroke-width="3"/>
<circle cx="70.0" cy="3728.9" r="141.7" fill="#c9cfdd" stroke="#98a2b8" stroke-width="3"/>
<circle cx="1209.9" cy="3971.8" r="141.7" fill="#c9cfdd" stroke="#98a2b8" stroke-width="3"/>
<circle cx="2841.4" cy="704.6" r="141.7" fill="#c9cfdd" stroke="#98a2b8" stroke-width="3"/>
<circle cx="1286.4" cy="2069.1" r="141.7" fill="#c9cfdd" stroke="#98a2b8" stroke-width="3"/>
<circle cx="3613.4" cy="3428.9" r="141.7" fill="#c9cfdd" stroke="#98a2b8" stroke-width="3"/>
<circle cx="1214.2" cy="3050.4" r="141.7" fill="#c9cfdd" stroke="#98a2b8" stroke-width="3"/>
<circle cx="4223.2" cy="2172.8" r="141.7" fill="#c9cfdd" stroke="#98a2b8" stroke-width="3"/>
<circle cx="1475.8" cy="1160.4" r="141.7" fill="#c9cfdd" stroke="#98a2b8" stroke-width="3"/>
<circle cx="3828.8" cy="5674.6" r="141.7" fill="#c9cfdd" stroke="#98a2b8" stroke-width="3"/>
<circle cx="3980.3" cy="5232.6" r="141.7" fill="#c9cfdd" stroke="#98a2b8" stroke-width="3"/>
<circle cx="2652.2" cy="5470.9" r="141.7" fill="#c9cfdd" stroke="#98a2b8" stroke-width="3"/>
<circle cx="3548.1" cy="5331.4" r="141.7" fill="#c9cfdd" stroke="#98a2b8" stroke-width="3"/>
<circle cx="3391.2" cy="5746.2" r="141.7" fill="#c9cfdd" stroke="#98a2b8" stroke-width="3"/>
<circle cx="3249.3" cy="5003.7" r="141.7" fill="#c9cfdd" stroke="#98a2b8" stroke-width="3"/>
<circle cx="3092.5" cy="5418.5" r="141.7" fill="#c9cfdd" stroke="#98a2b8" stroke-width="3"/>
<circle cx="2476.5" cy="5063.8" r="141.7" fill="#c9cfdd" stroke="#98a2b8" stroke-width="3"/>
<circle cx="1615.7" cy="2366.8" r="141.7" fill="#c9cfdd" stroke="#98a2b8" stroke-width="3"/>
<circle cx="1230.0" cy="4414.7" r="141.7" fill="#c9cfdd" stroke="#98a2b8" stroke-width="3"/>
<circle cx="5047.0" cy="801.9" r="141.7" fill="#c9cfdd" stroke="#98a2b8" stroke-width="3"/>
<circle cx="1981.0" cy="3056.0" r="141.7" fill="#c9cfdd" stroke="#98a2b8" stroke-width="3"/>
<circle cx="4848.8" cy="3609.6" r="141.7" fill="#c9cfdd" stroke="#98a2b8" stroke-width="3"/>
<circle cx="1637.2" cy="4628.9" r="141.7" fill="#c9cfdd" stroke="#98a2b8" stroke-width="3"/>
<circle cx="3972.8" cy="4565.3" r="141.7" fill="#c9cfdd" stroke="#98a2b8" stroke-width="3"/>
<circle cx="1610.0" cy="4186.3" r="141.7" fill="#c9cfdd" stroke="#98a2b8" stroke-width="3"/>
<circle cx="2935.6" cy="1834.7" r="141.7" fill="#c9cfdd" stroke="#98a2b8" stroke-width="3"/>
<circle cx="2771.7" cy="3935.3" r="141.7" fill="#c9cfdd" stroke="#98a2b8" stroke-width="3"/>
<circle cx="4649.8" cy="2293.7" r="141.7" fill="#c9cfdd" stroke="#98a2b8" stroke-width="3"/>
<circle cx="2442.8" cy="4621.6" r="141.7" fill="#c9cfdd" stroke="#98a2b8" stroke-width="3"/>
<circle cx="4123.8" cy="3346.0" r="141.7" fill="#c9cfdd" stroke="#98a2b8" stroke-width="3"/>
<circle cx="4616.3" cy="688.6" r="141.7" fill="#c9cfdd" stroke="#98a2b8" stroke-width="3"/>
<circle cx="3155.0" cy="3676.4" r="141.7" fill="#c9cfdd" stroke="#98a2b8" stroke-width="3"/>
<circle cx="1813.5" cy="1447.7" r="141.7" fill="#c9cfdd" stroke="#98a2b8" stroke-width="3"/>
<circle cx="1986.4" cy="2612.6" r="141.7" fill="#c9cfdd" stroke="#98a2b8" stroke-width="3"/>
<circle cx="2402.0" cy="4180.1" r="141.7" fill="#c9cfdd" stroke="#98a2b8" stroke-width="3"/>
<circle cx="3364.9" cy="1945.6" r="141.7" fill="#c9cfdd" stroke="#98a2b8" stroke-width="3"/>
<circle cx="3557.8" cy="1202.5" r="141.7" fill="#c9cfdd" stroke="#98a2b8" stroke-width="3"/>
<circle cx="4867.4" cy="3166.5" r="141.7" fill="#c9cfdd" stroke="#98a2b8" stroke-width="3"/>
<circle cx="4734.1" cy="1116.0" r="141.7" fill="#c9cfdd" stroke="#98a2b8" stroke-width="3"/>
<circle cx="3602.2" cy="4321.9" r="141.7" fill="#c9cfdd" stroke="#98a2b8" stroke-width="3"/>
<circle cx="3228.6" cy="4560.8" r="141.7" fill="#c9cfdd" stroke="#98a2b8" stroke-width="3"/>
<rect x="4427.9" y="159.3" width="140.0" height="94.0" fill="#e8556d" rx="4"/>
<rect x="4427.9" y="269.3" width="140.0" height="94.0" fill="#e8556d" rx="4"/>
<rect x="3053.4" y="990.3" width="140.0" height="94.0" fill="#e8556d" rx="4"/>
<rect x="3053.4" y="1100.3" width="140.0" height="94.0" fill="#e8556d" rx="4"/>
<rect x="384.3" y="3405.7" width="140.0" height="94.0" fill="#e8556d" rx="4"/>
<rect x="384.3" y="3515.7" width="140.0" height="94.0" fill="#e8556d" rx="4"/>
<rect x="3478.0" y="3779.8" width="140.1" height="94.0" fill="#e8556d" rx="4"/>
<rect x="3478.1" y="3889.8" width="140.0" height="94.0" fill="#e8556d" rx="4"/>
<rect x="1525.9" y="3174.0" width="140.1" height="94.0" fill="#e8556d" rx="4"/>
<rect x="1526.0" y="3284.0" width="140.0" height="94.0" fill="#e8556d" rx="4"/>
<rect x="2197.2" y="5589.0" width="140.1" height="94.0" fill="#e8556d" rx="4"/>
<rect x="2197.2" y="5699.0" width="140.0" height="94.0" fill="#e8556d" rx="4"/>
<rect x="1641.5" y="5410.6" width="140.1" height="94.0" fill="#e8556d" rx="4"/>
<rect x="1641.6" y="5520.6" width="140.0" height="94.0" fill="#e8556d" rx="4"/>
<rect x="2850.6" y="5725.3" width="140.1" height="94.0" fill="#e8556d" rx="4"/>
<rect x="2850.7" y="5835.3" width="140.0" height="94.0" fill="#e8556d" rx="4"/>
<rect x="2021.5" y="5181.9" width="140.1" height="94.0" fill="#e8556d" rx="4"/>
<rect x="2021.5" y="5291.9" width="140.0" height="94.0" fill="#e8556d" rx="4"/>
<rect x="3610.0" y="4796.3" width="140.1" height="94.0" fill="#e8556d" rx="4"/>
<rect x="3610.1" y="4906.3" width="140.0" height="94.0" fill="#e8556d" rx="4"/>
<rect x="2776.2" y="4717.0" width="140.1" height="94.0" fill="#e8556d" rx="4"/>
<rect x="2776.2" y="4827.0" width="140.0" height="94.0" fill="#e8556d" rx="4"/>
<rect x="1987.8" y="4739.7" width="140.1" height="94.0" fill="#e8556d" rx="4"/>
<rect x="1987.8" y="4849.7" width="140.0" height="94.0" fill="#e8556d" rx="4"/>
<rect x="1942.4" y="2066.8" width="140.1" height="94.0" fill="#e8556d" rx="4"/>
<rect x="1942.5" y="2176.8" width="140.0" height="94.0" fill="#e8556d" rx="4"/>
<rect x="1159.8" y="2483.1" width="140.0" height="94.0" fill="#e8556d" rx="4"/>
<rect x="1159.8" y="2593.1" width="140.0" height="94.0" fill="#e8556d" rx="4"/>
<rect x="3127.4" y="2657.6" width="140.1" height="94.0" fill="#e8556d" rx="4"/>
<rect x="3127.5" y="2767.6" width="140.0" height="94.0" fill="#e8556d" rx="4"/>
<rect x="1919.9" y="3855.5" width="140.1" height="94.0" fill="#e8556d" rx="4"/>
<rect x="1919.9" y="3965.5" width="140.0" height="94.0" fill="#e8556d" rx="4"/>
<rect x="2160.7" y="1195.5" width="140.1" height="94.0" fill="#e8556d" rx="4"/>
<rect x="2160.8" y="1305.5" width="140.0" height="94.0" fill="#e8556d" rx="4"/>
<rect x="2681.6" y="3390.3" width="140.1" height="94.0" fill="#e8556d" rx="4"/>
<rect x="2681.7" y="3500.3" width="140.0" height="94.0" fill="#e8556d" rx="4"/>
<rect x="878.5" y="1679.9" width="140.1" height="94.0" fill="#e8556d" rx="4"/>
<rect x="878.6" y="1789.9" width="140.0" height="94.0" fill="#e8556d" rx="4"/>
<rect x="2610.7" y="1015.9" width="140.1" height="94.0" fill="#e8556d" rx="4"/>
<rect x="2610.8" y="1125.9" width="140.0" height="94.0" fill="#e8556d" rx="4"/>
<rect x="1275.5" y="1482.3" width="140.1" height="94.0" fill="#e8556d" rx="4"/>
<rect x="1275.6" y="1592.3" width="140.0" height="94.0" fill="#e8556d" rx="4"/>
<rect x="2339.6" y="2752.5" width="140.1" height="94.0" fill="#e8556d" rx="4"/>
<rect x="2339.7" y="2862.5" width="140.0" height="94.0" fill="#e8556d" rx="4"/>
<rect x="107.8" y="2118.7" width="140.1" height="94.0" fill="#e8556d" rx="4"/>
<rect x="107.9" y="2228.7" width="140.0" height="94.0" fill="#e8556d" rx="4"/>
<rect x="394.9" y="2932.0" width="140.1" height="94.0" fill="#e8556d" rx="4"/>
<rect x="394.9" y="3042.0" width="140.0" height="94.0" fill="#e8556d" rx="4"/>
<rect x="766.0" y="3631.4" width="140.0" height="94.0" fill="#e8556d" rx="4"/>
<rect x="766.0" y="3741.4" width="140.0" height="94.0" fill="#e8556d" rx="4"/>
<rect x="1571.7" y="187.0" width="140.1" height="94.0" fill="#e8556d" rx="4"/>
<rect x="1571.8" y="297.0" width="140.0" height="94.0" fill="#e8556d" rx="4"/>
<rect x="1910.3" y="473.4" width="140.1" height="94.0" fill="#e8556d" rx="4"/>
<rect x="1910.3" y="583.4" width="140.0" height="94.0" fill="#e8556d" rx="4"/>
<rect x="2079.6" y="1644.7" width="140.1" height="94.0" fill="#e8556d" rx="4"/>
<rect x="2079.6" y="1754.7" width="140.0" height="94.0" fill="#e8556d" rx="4"/>
<rect x="2071.0" y="60.1" width="140.1" height="94.0" fill="#e8556d" rx="4"/>
<rect x="2071.0" y="170.1" width="140.0" height="94.0" fill="#e8556d" rx="4"/>
<rect x="2744.8" y="58.1" width="140.1" height="94.0" fill="#e8556d" rx="4"/>
<rect x="2744.9" y="168.1" width="140.0" height="94.0" fill="#e8556d" rx="4"/>
<rect x="1822.9" y="908.2" width="140.1" height="94.0" fill="#e8556d" rx="4"/>
<rect x="1823.0" y="1018.2" width="140.0" height="94.0" fill="#e8556d" rx="4"/>
<rect x="3421.2" y="0.0" width="140.1" height="94.0" fill="#e8556d" rx="4"/>
<rect x="3421.3" y="110.0" width="140.0" height="94.0" fill="#e8556d" rx="4"/>
<rect x="2408.8" y="347.4" width="140.1" height="94.0" fill="#e8556d" rx="4"/>
<rect x="2408.8" y="457.4" width="140.0" height="94.0" fill="#e8556d" rx="4"/>
<rect x="3991.8" y="47.5" width="140.1" height="94.0" fill="#e8556d" rx="4"/>
<rect x="3991.9" y="157.5" width="140.0" height="94.0" fill="#e8556d" rx="4"/>
<rect x="3107.4" y="313.3" width="140.1" height="94.0" fill="#e8556d" rx="4"/>
<rect x="3107.5" y="423.3" width="140.0" height="94.0" fill="#e8556d" rx="4"/>
<rect x="1146.0" y="3402.9" width="140.0" height="94.0" fill="#e8556d" rx="4"/>
<rect x="1146.0" y="3512.9" width="140.0" height="94.0" fill="#e8556d" rx="4"/>
<rect x="5206.2" y="1563.9" width="140.1" height="94.0" fill="#e8556d" rx="4"/>
<rect x="5206.3" y="1673.9" width="140.0" height="94.0" fill="#e8556d" rx="4"/>
<rect x="5649.6" y="1557.7" width="140.1" height="94.0" fill="#e8556d" rx="4"/>
<rect x="5649.7" y="1667.7" width="140.0" height="94.0" fill="#e8556d" rx="4"/>
<rect x="4779.6" y="1443.0" width="140.1" height="94.0" fill="#e8556d" rx="4"/>
<rect x="4779.6" y="1553.0" width="140.0" height="94.0" fill="#e8556d" rx="4"/>
<rect x="5535.9" y="1129.1" width="140.1" height="94.0" fill="#e8556d" rx="4"/>
<rect x="5535.9" y="1239.1" width="140.0" height="94.0" fill="#e8556d" rx="4"/>
<rect x="5873.3" y="2416.0" width="140.1" height="94.0" fill="#e8556d" rx="4"/>
<rect x="5873.3" y="2526.0" width="140.0" height="94.0" fill="#e8556d" rx="4"/>
<rect x="5762.1" y="1986.7" width="140.1" height="94.0" fill="#e8556d" rx="4"/>
<rect x="5762.2" y="2096.7" width="140.0" height="94.0" fill="#e8556d" rx="4"/>
<rect x="5886.3" y="2859.2" width="140.1" height="94.0" fill="#e8556d" rx="4"/>
<rect x="5886.3" y="2969.2" width="140.0" height="94.0" fill="#e8556d" rx="4"/>
<rect x="5430.7" y="2443.7" width="140.1" height="94.0" fill="#e8556d" rx="4"/>
<rect x="5430.7" y="2553.7" width="140.0" height="94.0" fill="#e8556d" rx="4"/>
<rect x="3724.0" y="1955.3" width="140.1" height="94.0" fill="#e8556d" rx="4"/>
<rect x="3724.1" y="2065.3" width="140.0" height="94.0" fill="#e8556d" rx="4"/>
<rect x="3920.1" y="1214.7" width="140.1" height="94.0" fill="#e8556d" rx="4"/>
<rect x="3920.1" y="1324.7" width="140.0" height="94.0" fill="#e8556d" rx="4"/>
<rect x="2450.3" y="1888.1" width="140.0" height="94.0" fill="#e8556d" rx="4"/>
<rect x="2450.3" y="1998.1" width="140.0" height="94.0" fill="#e8556d" rx="4"/>
<rect x="5318.9" y="2001.0" width="140.1" height="94.0" fill="#e8556d" rx="4"/>
<rect x="5319.0" y="2111.0" width="140.0" height="94.0" fill="#e8556d" rx="4"/>
<rect x="3508.9" y="2883.6" width="140.1" height="94.0" fill="#e8556d" rx="4"/>
<rect x="3509.0" y="2993.6" width="140.0" height="94.0" fill="#e8556d" rx="4"/>
<rect x="5092.4" y="1128.8" width="140.1" height="94.0" fill="#e8556d" rx="4"/>
<rect x="5092.5" y="1238.8" width="140.0" height="94.0" fill="#e8556d" rx="4"/>
<rect x="2742.5" y="4274.8" width="140.1" height="94.0" fill="#e8556d" rx="4"/>
<rect x="2742.5" y="4384.8" width="140.0" height="94.0" fill="#e8556d" rx="4"/>
<rect x="4094.1" y="4063.3" width="140.1" height="94.0" fill="#e8556d" rx="4"/>
<rect x="4094.2" y="4173.3" width="140.0" height="94.0" fill="#e8556d" rx="4"/>
<rect x="5006.2" y="2315.4" width="140.1" height="94.0" fill="#e8556d" rx="4"/>
<rect x="5006.2" y="2425.4" width="140.0" height="94.0" fill="#e8556d" rx="4"/>
<rect x="4351.2" y="1328.3" width="140.1" height="94.0" fill="#e8556d" rx="4"/>
<rect x="4351.3" y="1438.3" width="140.0" height="94.0" fill="#e8556d" rx="4"/>
<rect x="4466.3" y="1756.9" width="140.1" height="94.0" fill="#e8556d" rx="4"/>
<rect x="4466.3" y="1866.9" width="140.0" height="94.0" fill="#e8556d" rx="4"/>
<rect x="4265.5" y="2504.6" width="140.1" height="94.0" fill="#e8556d" rx="4"/>
<rect x="4265.5" y="2614.6" width="140.0" height="94.0" fill="#e8556d" rx="4"/>
<rect x="2523.4" y="1450.7" width="140.1" height="94.0" fill="#e8556d" rx="4"/>
<rect x="2523.4" y="1560.7" width="140.0" height="94.0" fill="#e8556d" rx="4"/>
<rect x="764.3" y="3177.3" width="140.0" height="94.0" fill="#e8556d" rx="4"/>
<rect x="764.3" y="3287.3" width="140.0" height="94.0" fill="#e8556d" rx="4"/>
<rect x="5685.2" y="4105.4" width="140.1" height="94.0" fill="#e8556d" rx="4"/>
<rect x="5685.3" y="4215.4" width="140.0" height="94.0" fill="#e8556d" rx="4"/>
<rect x="4982.3" y="3901.6" width="140.1" height="94.0" fill="#e8556d" rx="4"/>
<rect x="4982.4" y="4011.6" width="140.0" height="94.0" fill="#e8556d" rx="4"/>
<rect x="2984.1" y="2160.0" width="140.1" height="94.0" fill="#e8556d" rx="4"/>
<rect x="2984.2" y="2270.0" width="140.0" height="94.0" fill="#e8556d" rx="4"/>
<rect x="5264.0" y="4244.1" width="140.1" height="94.0" fill="#e8556d" rx="4"/>
<rect x="5264.1" y="4354.1" width="140.0" height="94.0" fill="#e8556d" rx="4"/>
<rect x="5683.4" y="3418.9" width="140.1" height="94.0" fill="#e8556d" rx="4"/>
<rect x="5683.5" y="3528.9" width="140.0" height="94.0" fill="#e8556d" rx="4"/>
<rect x="5115.9" y="2756.1" width="140.1" height="94.0" fill="#e8556d" rx="4"/>
<rect x="5116.0" y="2866.1" width="140.0" height="94.0" fill="#e8556d" rx="4"/>
<rect x="5403.5" y="3762.9" width="140.1" height="94.0" fill="#e8556d" rx="4"/>
<rect x="5403.6" y="3872.9" width="140.0" height="94.0" fill="#e8556d" rx="4"/>
<rect x="5472.7" y="3019.3" width="140.1" height="94.0" fill="#e8556d" rx="4"/>
<rect x="5472.8" y="3129.3" width="140.0" height="94.0" fill="#e8556d" rx="4"/>
<rect x="1529.1" y="2728.4" width="140.1" height="94.0" fill="#e8556d" rx="4"/>
<rect x="1529.2" y="2838.4" width="140.0" height="94.0" fill="#e8556d" rx="4"/>
<rect x="1899.7" y="3412.5" width="140.1" height="94.0" fill="#e8556d" rx="4"/>
<rect x="1899.8" y="3522.5" width="140.0" height="94.0" fill="#e8556d" rx="4"/>
<rect x="830.7" y="2185.9" width="140.0" height="94.0" fill="#e8556d" rx="4"/>
<rect x="830.7" y="2295.9" width="140.0" height="94.0" fill="#e8556d" rx="4"/>
<rect x="1067.1" y="772.1" width="140.1" height="94.0" fill="#e8556d" rx="4"/>
<rect x="1067.2" y="882.1" width="140.0" height="94.0" fill="#e8556d" rx="4"/>
<rect x="1145.7" y="335.5" width="140.1" height="94.0" fill="#e8556d" rx="4"/>
<rect x="1145.7" y="445.5" width="140.0" height="94.0" fill="#e8556d" rx="4"/>
<rect x="1613.3" y="1769.6" width="140.1" height="94.0" fill="#e8556d" rx="4"/>
<rect x="1613.4" y="1879.6" width="140.0" height="94.0" fill="#e8556d" rx="4"/>
<rect x="1484.3" y="621.8" width="140.1" height="94.0" fill="#e8556d" rx="4"/>
<rect x="1484.4" y="731.8" width="140.0" height="94.0" fill="#e8556d" rx="4"/>
<rect x="539.9" y="1393.5" width="140.1" height="94.0" fill="#e8556d" rx="4"/>
<rect x="540.0" y="1503.5" width="140.0" height="94.0" fill="#e8556d" rx="4"/>
<rect x="721.2" y="494.6" width="140.1" height="94.0" fill="#e8556d" rx="4"/>
<rect x="721.3" y="604.6" width="140.0" height="94.0" fill="#e8556d" rx="4"/>
<rect x="591.0" y="918.5" width="140.1" height="94.0" fill="#e8556d" rx="4"/>
<rect x="591.1" y="1028.5" width="140.0" height="94.0" fill="#e8556d" rx="4"/>
<rect x="774.8" y="2703.1" width="140.0" height="94.0" fill="#e8556d" rx="4"/>
<rect x="774.8" y="2813.1" width="140.0" height="94.0" fill="#e8556d" rx="4"/>
<rect x="445.7" y="2405.9" width="140.0" height="94.0" fill="#e8556d" rx="4"/>
<rect x="445.7" y="2515.9" width="140.0" height="94.0" fill="#e8556d" rx="4"/>
<rect x="492.9" y="1898.7" width="140.0" height="94.0" fill="#e8556d" rx="4"/>
<rect x="492.9" y="2008.7" width="140.0" height="94.0" fill="#e8556d" rx="4"/>
<rect x="4115.0" y="473.5" width="140.0" height="94.0" fill="#e8556d" rx="4"/>
<rect x="4115.0" y="583.5" width="140.0" height="94.0" fill="#e8556d" rx="4"/>
<rect x="381.4" y="3853.1" width="140.0" height="94.0" fill="#e8556d" rx="4"/>
<rect x="381.4" y="3963.1" width="140.0" height="94.0" fill="#e8556d" rx="4"/>
<rect x="1227.9" y="5196.8" width="140.0" height="94.0" fill="#e8556d" rx="4"/>
<rect x="1227.9" y="5306.8" width="140.0" height="94.0" fill="#e8556d" rx="4"/>
<rect x="755.6" y="4091.0" width="140.0" height="94.0" fill="#e8556d" rx="4"/>
<rect x="755.6" y="4201.0" width="140.0" height="94.0" fill="#e8556d" rx="4"/>
<rect x="1519.9" y="3641.3" width="140.0" height="94.0" fill="#e8556d" rx="4"/>
<rect x="1519.9" y="3751.3" width="140.0" height="94.0" fill="#e8556d" rx="4"/>
<rect x="1947.1" y="4298.1" width="140.0" height="94.0" fill="#e8556d" rx="4"/>
<rect x="1947.1" y="4408.1" width="140.0" height="94.0" fill="#e8556d" rx="4"/>
<rect x="375.2" y="4318.8" width="140.0" height="94.0" fill="#e8556d" rx="4"/>
<rect x="375.2" y="4428.8" width="140.0" height="94.0" fill="#e8556d" rx="4"/>
<rect x="803.5" y="4977.7" width="140.0" height="94.0" fill="#e8556d" rx="4"/>
<rect x="803.5" y="5087.7" width="140.0" height="94.0" fill="#e8556d" rx="4"/>
<rect x="775.7" y="4533.9" width="140.0" height="94.0" fill="#e8556d" rx="4"/>
<rect x="775.7" y="4643.9" width="140.0" height="94.0" fill="#e8556d" rx="4"/>
<rect x="1187.1" y="4755.3" width="140.0" height="94.0" fill="#e8556d" rx="4"/>
<rect x="1187.1" y="4865.3" width="140.0" height="94.0" fill="#e8556d" rx="4"/>
<rect x="1607.9" y="4968.4" width="140.0" height="94.0" fill="#e8556d" rx="4"/>
<rect x="1607.9" y="5078.4" width="140.0" height="94.0" fill="#e8556d" rx="4"/>
<rect x="4893.0" y="1877.7" width="140.0" height="94.0" fill="#e8556d" rx="4"/>
<rect x="4893.0" y="1987.7" width="140.0" height="94.0" fill="#e8556d" rx="4"/>
<rect x="4191.1" y="5473.8" width="140.0" height="94.0" fill="#e8556d" rx="4"/>
<rect x="4191.1" y="5583.8" width="140.0" height="94.0" fill="#e8556d" rx="4"/>
<rect x="4198.6" y="4793.7" width="140.0" height="94.0" fill="#e8556d" rx="4"/>
<rect x="4198.6" y="4903.7" width="140.0" height="94.0" fill="#e8556d" rx="4"/>
<rect x="4373.0" y="2936.2" width="140.0" height="94.0" fill="#e8556d" rx="4"/>
<rect x="4373.0" y="3046.2" width="140.0" height="94.0" fill="#e8556d" rx="4"/>
<rect x="2740.3" y="2950.7" width="140.0" height="94.0" fill="#e8556d" rx="4"/>
<rect x="2740.3" y="3060.7" width="140.0" height="94.0" fill="#e8556d" rx="4"/>
<rect x="4941.8" y="5087.8" width="140.0" height="94.0" fill="#e8556d" rx="4"/>
<rect x="4941.8" y="5197.8" width="140.0" height="94.0" fill="#e8556d" rx="4"/>
<rect x="4479.3" y="5136.9" width="140.0" height="94.0" fill="#e8556d" rx="4"/>
<rect x="4479.3" y="5246.9" width="140.0" height="94.0" fill="#e8556d" rx="4"/>
<rect x="5107.4" y="4660.0" width="140.0" height="94.0" fill="#e8556d" rx="4"/>
<rect x="5107.4" y="4770.0" width="140.0" height="94.0" fill="#e8556d" rx="4"/>
<rect x="3104.5" y="4018.7" width="140.0" height="94.0" fill="#e8556d" rx="4"/>
<rect x="3104.5" y="4128.7" width="140.0" height="94.0" fill="#e8556d" rx="4"/>
<rect x="4541.7" y="3977.0" width="140.0" height="94.0" fill="#e8556d" rx="4"/>
<rect x="4541.7" y="4087.0" width="140.0" height="94.0" fill="#e8556d" rx="4"/>
<rect x="4670.7" y="4736.9" width="140.0" height="94.0" fill="#e8556d" rx="4"/>
<rect x="4670.7" y="4846.9" width="140.0" height="94.0" fill="#e8556d" rx="4"/>
<rect x="2248.1" y="760.7" width="140.0" height="94.0" fill="#e8556d" rx="4"/>
<rect x="2248.1" y="870.7" width="140.0" height="94.0" fill="#e8556d" rx="4"/>
<rect x="4826.6" y="4316.8" width="140.0" height="94.0" fill="#e8556d" rx="4"/>
<rect x="4826.6" y="4426.8" width="140.0" height="94.0" fill="#e8556d" rx="4"/>
<rect x="3946.9" y="2813.7" width="140.0" height="94.0" fill="#e8556d" rx="4"/>
<rect x="3946.9" y="2923.7" width="140.0" height="94.0" fill="#e8556d" rx="4"/>
<rect x="4691.5" y="2627.7" width="140.0" height="94.0" fill="#e8556d" rx="4"/>
<rect x="4691.5" y="2737.7" width="140.0" height="94.0" fill="#e8556d" rx="4"/>
<rect x="3838.9" y="2383.6" width="140.0" height="94.0" fill="#e8556d" rx="4"/>
<rect x="3838.9" y="2493.6" width="140.0" height="94.0" fill="#e8556d" rx="4"/>
<rect x="4341.6" y="3581.3" width="140.0" height="94.0" fill="#e8556d" rx="4"/>
<rect x="4341.6" y="3691.3" width="140.0" height="94.0" fill="#e8556d" rx="4"/>
<rect x="5200.0" y="3368.9" width="140.0" height="94.0" fill="#e8556d" rx="4"/>
<rect x="5200.0" y="3478.9" width="140.0" height="94.0" fill="#e8556d" rx="4"/>
<rect x="4389.9" y="4393.7" width="140.0" height="94.0" fill="#e8556d" rx="4"/>
<rect x="4389.9" y="4503.7" width="140.0" height="94.0" fill="#e8556d" rx="4"/>
<rect x="2304.9" y="3635.4" width="140.0" height="94.0" fill="#e8556d" rx="4"/>
<rect x="2304.9" y="3745.4" width="140.0" height="94.0" fill="#e8556d" rx="4"/>
<rect x="4038.0" y="1642.1" width="140.0" height="94.0" fill="#e8556d" rx="4"/>
<rect x="4038.0" y="1752.1" width="140.0" height="94.0" fill="#e8556d" rx="4"/>
<rect x="3176.5" y="1416.3" width="140.0" height="94.0" fill="#e8556d" rx="4"/>
<rect x="3176.5" y="1526.3" width="140.0" height="94.0" fill="#e8556d" rx="4"/>
<rect x="3678.6" y="361.3" width="140.0" height="94.0" fill="#e8556d" rx="4"/>
<rect x="3678.6" y="471.3" width="140.0" height="94.0" fill="#e8556d" rx="4"/>
<rect x="937.0" y="1195.9" width="140.0" height="94.0" fill="#e8556d" rx="4"/>
<rect x="937.0" y="1305.9" width="140.0" height="94.0" fill="#e8556d" rx="4"/>
<rect x="3801.7" y="787.3" width="140.0" height="94.0" fill="#e8556d" rx="4"/>
<rect x="3801.7" y="897.3" width="140.0" height="94.0" fill="#e8556d" rx="4"/>
<rect x="3143.6" y="3134.9" width="140.0" height="94.0" fill="#e8556d" rx="4"/>
<rect x="3143.6" y="3244.9" width="140.0" height="94.0" fill="#e8556d" rx="4"/>
<rect x="3905.6" y="3661.9" width="140.0" height="94.0" fill="#e8556d" rx="4"/>
<rect x="3905.6" y="3771.9" width="140.0" height="94.0" fill="#e8556d" rx="4"/>
<rect x="2284.8" y="3192.5" width="140.0" height="94.0" fill="#e8556d" rx="4"/>
<rect x="2284.8" y="3302.5" width="140.0" height="94.0" fill="#e8556d" rx="4"/>
<rect x="3401.8" y="2309.2" width="140.0" height="94.0" fill="#e8556d" rx="4"/>
<rect x="3401.8" y="2419.2" width="140.0" height="94.0" fill="#e8556d" rx="4"/>
<rect x="2709.9" y="2508.4" width="140.0" height="94.0" fill="#e8556d" rx="4"/>
<rect x="2709.9" y="2618.4" width="140.0" height="94.0" fill="#e8556d" rx="4"/>
<rect x="3606.2" y="1527.8" width="140.0" height="94.0" fill="#e8556d" rx="4"/>
<rect x="3606.2" y="1637.8" width="140.0" height="94.0" fill="#e8556d" rx="4"/>
<rect x="4233.4" y="900.8" width="140.0" height="94.0" fill="#e8556d" rx="4"/>
<rect x="4233.4" y="1010.8" width="140.0" height="94.0" fill="#e8556d" rx="4"/>
<rect x="2313.4" y="2309.8" width="140.0" height="94.0" fill="#e8556d" rx="4"/>
<rect x="2313.4" y="2419.8" width="140.0" height="94.0" fill="#e8556d" rx="4"/>
<rect x="3364.7" y="674.5" width="140.0" height="94.0" fill="#e8556d" rx="4"/>
<rect x="3364.7" y="784.5" width="140.0" height="94.0" fill="#e8556d" rx="4"/>
<rect x="154.3" y="1612.3" width="140.0" height="94.0" fill="#e8556d" rx="4"/>
<rect x="154.3" y="1722.3" width="140.0" height="94.0" fill="#e8556d" rx="4"/>
<rect x="65.9" y="2634.7" width="140.0" height="94.0" fill="#e8556d" rx="4"/>
<rect x="65.9" y="2744.7" width="140.0" height="94.0" fill="#e8556d" rx="4"/>
<rect x="14.9" y="3160.4" width="140.0" height="94.0" fill="#e8556d" rx="4"/>
<rect x="14.9" y="3270.4" width="140.0" height="94.0" fill="#e8556d" rx="4"/>
<rect x="0.0" y="3626.9" width="140.0" height="94.0" fill="#e8556d" rx="4"/>
<rect x="0.0" y="3736.9" width="140.0" height="94.0" fill="#e8556d" rx="4"/>
<rect x="1139.9" y="3869.8" width="140.0" height="94.0" fill="#e8556d" rx="4"/>
<rect x="1139.9" y="3979.8" width="140.0" height="94.0" fill="#e8556d" rx="4"/>
<rect x="2771.4" y="602.6" width="140.0" height="94.0" fill="#e8556d" rx="4"/>
<rect x="2771.4" y="712.6" width="140.0" height="94.0" fill="#e8556d" rx="4"/>
<rect x="1216.4" y="1967.1" width="140.0" height="94.0" fill="#e8556d" rx="4"/>
<rect x="1216.4" y="2077.1" width="140.0" height="94.0" fill="#e8556d" rx="4"/>
<rect x="3543.4" y="3326.9" width="140.0" height="94.0" fill="#e8556d" rx="4"/>
<rect x="3543.4" y="3436.9" width="140.0" height="94.0" fill="#e8556d" rx="4"/>
<rect x="1144.2" y="2948.4" width="140.0" height="94.0" fill="#e8556d" rx="4"/>
<rect x="1144.2" y="3058.4" width="140.0" height="94.0" fill="#e8556d" rx="4"/>
<rect x="4153.2" y="2070.8" width="140.0" height="94.0" fill="#e8556d" rx="4"/>
<rect x="4153.2" y="2180.8" width="140.0" height="94.0" fill="#e8556d" rx="4"/>
<rect x="1405.8" y="1058.4" width="140.0" height="94.0" fill="#e8556d" rx="4"/>
<rect x="1405.8" y="1168.4" width="140.0" height="94.0" fill="#e8556d" rx="4"/>
<rect x="3758.8" y="5572.6" width="140.0" height="94.0" fill="#e8556d" rx="4"/>
<rect x="3758.8" y="5682.6" width="140.0" height="94.0" fill="#e8556d" rx="4"/>
<rect x="3910.3" y="5130.6" width="140.0" height="94.0" fill="#e8556d" rx="4"/>
<rect x="3910.3" y="5240.6" width="140.0" height="94.0" fill="#e8556d" rx="4"/>
<rect x="2582.2" y="5368.9" width="140.0" height="94.0" fill="#e8556d" rx="4"/>
<rect x="2582.2" y="5478.9" width="140.0" height="94.0" fill="#e8556d" rx="4"/>
<rect x="3478.1" y="5229.4" width="140.0" height="94.0" fill="#e8556d" rx="4"/>
<rect x="3478.1" y="5339.4" width="140.0" height="94.0" fill="#e8556d" rx="4"/>
<rect x="3321.2" y="5644.2" width="140.0" height="94.0" fill="#e8556d" rx="4"/>
<rect x="3321.2" y="5754.2" width="140.0" height="94.0" fill="#e8556d" rx="4"/>
<rect x="3179.3" y="4901.7" width="140.0" height="94.0" fill="#e8556d" rx="4"/>
<rect x="3179.3" y="5011.7" width="140.0" height="94.0" fill="#e8556d" rx="4"/>
<rect x="3022.5" y="5316.5" width="140.0" height="94.0" fill="#e8556d" rx="4"/>
<rect x="3022.5" y="5426.5" width="140.0" height="94.0" fill="#e8556d" rx="4"/>
<rect x="2406.5" y="4961.8" width="140.0" height="94.0" fill="#e8556d" rx="4"/>
<rect x="2406.5" y="5071.8" width="140.0" height="94.0" fill="#e8556d" rx="4"/>
<rect x="1545.7" y="2264.8" width="140.0" height="94.0" fill="#e8556d" rx="4"/>
<rect x="1545.7" y="2374.8" width="140.0" height="94.0" fill="#e8556d" rx="4"/>
<rect x="1160.0" y="4312.7" width="140.0" height="94.0" fill="#e8556d" rx="4"/>
<rect x="1160.0" y="4422.7" width="140.0" height="94.0" fill="#e8556d" rx="4"/>
<rect x="4977.0" y="699.9" width="140.0" height="94.0" fill="#e8556d" rx="4"/>
<rect x="4977.0" y="809.9" width="140.0" height="94.0" fill="#e8556d" rx="4"/>
<rect x="1911.0" y="2954.0" width="140.0" height="94.0" fill="#e8556d" rx="4"/>
<rect x="1911.0" y="3064.0" width="140.0" height="94.0" fill="#e8556d" rx="4"/>
<rect x="4778.8" y="3507.6" width="140.0" height="94.0" fill="#e8556d" rx="4"/>
<rect x="4778.8" y="3617.6" width="140.0" height="94.0" fill="#e8556d" rx="4"/>
<rect x="1567.2" y="4526.9" width="140.0" height="94.0" fill="#e8556d" rx="4"/>
<rect x="1567.2" y="4636.9" width="140.0" height="94.0" fill="#e8556d" rx="4"/>
<rect x="3902.8" y="4463.3" width="140.0" height="94.0" fill="#e8556d" rx="4"/>
<rect x="3902.8" y="4573.3" width="140.0" height="94.0" fill="#e8556d" rx="4"/>
<rect x="1540.0" y="4084.3" width="140.0" height="94.0" fill="#e8556d" rx="4"/>
<rect x="1540.0" y="4194.3" width="140.0" height="94.0" fill="#e8556d" rx="4"/>
<rect x="2865.6" y="1732.7" width="140.0" height="94.0" fill="#e8556d" rx="4"/>
<rect x="2865.6" y="1842.7" width="140.0" height="94.0" fill="#e8556d" rx="4"/>
<rect x="2701.7" y="3833.3" width="140.0" height="94.0" fill="#e8556d" rx="4"/>
<rect x="2701.7" y="3943.3" width="140.0" height="94.0" fill="#e8556d" rx="4"/>
<rect x="4579.8" y="2191.7" width="140.0" height="94.0" fill="#e8556d" rx="4"/>
<rect x="4579.8" y="2301.7" width="140.0" height="94.0" fill="#e8556d" rx="4"/>
<rect x="2372.8" y="4519.6" width="140.0" height="94.0" fill="#e8556d" rx="4"/>
<rect x="2372.8" y="4629.6" width="140.0" height="94.0" fill="#e8556d" rx="4"/>
<rect x="4053.8" y="3244.0" width="140.0" height="94.0" fill="#e8556d" rx="4"/>
<rect x="4053.8" y="3354.0" width="140.0" height="94.0" fill="#e8556d" rx="4"/>
<rect x="4546.3" y="586.6" width="140.0" height="94.0" fill="#e8556d" rx="4"/>
<rect x="4546.3" y="696.6" width="140.0" height="94.0" fill="#e8556d" rx="4"/>
<rect x="3085.0" y="3574.4" width="140.0" height="94.0" fill="#e8556d" rx="4"/>
<rect x="3085.0" y="3684.4" width="140.0" height="94.0" fill="#e8556d" rx="4"/>
<rect x="1743.5" y="1345.7" width="140.0" height="94.0" fill="#e8556d" rx="4"/>
<rect x="1743.5" y="1455.7" width="140.0" height="94.0" fill="#e8556d" rx="4"/>
<rect x="1916.4" y="2510.6" width="140.0" height="94.0" fill="#e8556d" rx="4"/>
<rect x="1916.4" y="2620.6" width="140.0" height="94.0" fill="#e8556d" rx="4"/>
<rect x="2332.0" y="4078.1" width="140.0" height="94.0" fill="#e8556d" rx="4"/>
<rect x="2332.0" y="4188.1" width="140.0" height="94.0" fill="#e8556d" rx="4"/>
<rect x="3294.9" y="1843.6" width="140.0" height="94.0" fill="#e8556d" rx="4"/>
<rect x="3294.9" y="1953.6" width="140.0" height="94.0" fill="#e8556d" rx="4"/>
<rect x="3487.8" y="1100.5" width="140.0" height="94.0" fill="#e8556d" rx="4"/>
<rect x="3487.8" y="1210.5" width="140.0" height="94.0" fill="#e8556d" rx="4"/>
<rect x="4797.4" y="3064.5" width="140.0" height="94.0" fill="#e8556d" rx="4"/>
<rect x="4797.4" y="3174.5" width="140.0" height="94.0" fill="#e8556d" rx="4"/>
<rect x="4664.1" y="1014.0" width="140.0" height="94.0" fill="#e8556d" rx="4"/>
<rect x="4664.1" y="1124.0" width="140.0" height="94.0" fill="#e8556d" rx="4"/>
<rect x="3532.2" y="4219.9" width="140.0" height="94.0" fill="#e8556d" rx="4"/>
<rect x="3532.2" y="4329.9" width="140.0" height="94.0" fill="#e8556d" rx="4"/>
<rect x="3158.6" y="4458.8" width="140.0" height="94.0" fill="#e8556d" rx="4"/>
<rect x="3158.6" y="4568.8" width="140.0" height="94.0" fill="#e8556d" rx="4"/>
</svg>